%TF.GenerationSoftware,KiCad,Pcbnew,8.0.6*%
%TF.CreationDate,2025-01-01T18:14:05+00:00*%
%TF.ProjectId,srvant-mk2,73727661-6e74-42d6-9d6b-322e6b696361,rev?*%
%TF.SameCoordinates,Original*%
%TF.FileFunction,Soldermask,Bot*%
%TF.FilePolarity,Negative*%
%FSLAX46Y46*%
G04 Gerber Fmt 4.6, Leading zero omitted, Abs format (unit mm)*
G04 Created by KiCad (PCBNEW 8.0.6) date 2025-01-01 18:14:05*
%MOMM*%
%LPD*%
G01*
G04 APERTURE LIST*
%ADD10R,1.700000X1.700000*%
%ADD11O,1.700000X1.700000*%
%ADD12C,2.900000*%
%ADD13C,1.473200*%
%ADD14C,2.057400*%
%ADD15C,0.900000*%
%ADD16C,1.752600*%
%ADD17C,2.006600*%
%ADD18C,3.250000*%
%ADD19R,1.500000X1.500000*%
%ADD20C,1.500000*%
%ADD21C,1.600000*%
%ADD22C,2.200000*%
%ADD23C,1.828800*%
%ADD24C,6.100000*%
%ADD25O,1.350000X1.700000*%
%ADD26O,1.100000X1.500000*%
%ADD27R,3.000000X3.000000*%
%ADD28C,3.000000*%
%ADD29C,1.092200*%
%ADD30C,1.600200*%
G04 APERTURE END LIST*
D10*
%TO.C,J3*%
X-46760000Y-106400000D03*
D11*
X-49300000Y-106400000D03*
X-51840000Y-106400000D03*
%TD*%
D12*
%TO.C,H1*%
X-97000000Y-60600000D03*
%TD*%
D13*
%TO.C,J11*%
X-88988349Y-206857350D03*
X-88988349Y-204857351D03*
X-88988349Y-202857350D03*
X-88988349Y-200857352D03*
D14*
X-91708349Y-207587351D03*
X-86268349Y-207587351D03*
X-91708349Y-200587350D03*
X-86268349Y-200587350D03*
%TD*%
D15*
%TO.C,SW4*%
X-31425000Y-217600000D03*
X-27175000Y-217600000D03*
%TD*%
D16*
%TO.C,BT1*%
X-62200000Y-26000000D03*
D17*
X-62200000Y-18550091D03*
%TD*%
D12*
%TO.C,H6*%
X-23300000Y-210400000D03*
%TD*%
D15*
%TO.C,SW1*%
X-25425000Y-217500000D03*
X-21175000Y-217500000D03*
%TD*%
D12*
%TO.C,H5*%
X-115700000Y-215700000D03*
%TD*%
%TO.C,H7*%
X-24100000Y-4600000D03*
%TD*%
D18*
%TO.C,J5*%
X-48915000Y-208730000D03*
X-37485000Y-208730000D03*
D19*
X-48915000Y-199840000D03*
D20*
X-47645000Y-202380000D03*
X-46375000Y-199840000D03*
X-45105000Y-202380000D03*
X-43835000Y-199840000D03*
X-42565000Y-202380000D03*
X-41295000Y-199840000D03*
X-40025000Y-202380000D03*
X-38755000Y-199840000D03*
X-37485000Y-202380000D03*
D21*
X-49830000Y-212810000D03*
X-47290000Y-212810000D03*
X-39110000Y-212810000D03*
X-36570000Y-212810000D03*
D22*
X-50945000Y-205680000D03*
X-35455000Y-205680000D03*
%TD*%
D23*
%TO.C,J10*%
X-110949998Y-210569999D03*
X-96450002Y-210569999D03*
X-111550000Y-215470000D03*
X-95850000Y-215470000D03*
%TD*%
D12*
%TO.C,H2*%
X-97000000Y-42600000D03*
%TD*%
D24*
%TO.C,Module1*%
X-72500000Y-174000000D03*
X-72500000Y-126000000D03*
X-105500000Y-174000000D03*
X-105500000Y-126000000D03*
%TD*%
D18*
%TO.C,J9*%
X-78715000Y-208220000D03*
X-67285000Y-208220000D03*
D19*
X-78715000Y-199330000D03*
D20*
X-77445000Y-201870000D03*
X-76175000Y-199330000D03*
X-74905000Y-201870000D03*
X-73635000Y-199330000D03*
X-72365000Y-201870000D03*
X-71095000Y-199330000D03*
X-69825000Y-201870000D03*
X-68555000Y-199330000D03*
X-67285000Y-201870000D03*
D21*
X-79630000Y-212300000D03*
X-77090000Y-212300000D03*
X-68910000Y-212300000D03*
X-66370000Y-212300000D03*
D22*
X-80745000Y-205170000D03*
X-65255000Y-205170000D03*
%TD*%
D12*
%TO.C,H4*%
X-114900000Y-3900000D03*
%TD*%
%TO.C,H3*%
X-97000000Y-22600000D03*
%TD*%
D25*
%TO.C,J4*%
X-61030000Y-217886600D03*
D26*
X-60720000Y-214886600D03*
X-55880000Y-214886600D03*
D25*
X-55570000Y-217886600D03*
%TD*%
D10*
%TO.C,J2*%
X-53770500Y-82734200D03*
D11*
X-56310500Y-82734200D03*
%TD*%
D27*
%TO.C,J12*%
X-36380000Y-3200000D03*
D28*
X-31300000Y-3200000D03*
%TD*%
D29*
%TO.C,J8*%
X-86923600Y-102608198D03*
D30*
X-106923601Y-102608198D03*
%TD*%
M02*
