M48
; DRILL file {KiCad 8.0.6} date 2025-01-01T18:14:10+0000
; FORMAT={-:-/ absolute / metric / decimal}
; #@! TF.CreationDate,2025-01-01T18:14:10+00:00
; #@! TF.GenerationSoftware,Kicad,Pcbnew,8.0.6
; #@! TF.FileFunction,Plated,1,6,PTH
FMAT,2
METRIC
; #@! TA.AperFunction,Plated,PTH,ComponentDrill
T1C0.200
; #@! TA.AperFunction,Plated,PTH,ViaDrill
T2C0.250
; #@! TA.AperFunction,Plated,PTH,ComponentDrill
T3C0.250
; #@! TA.AperFunction,Plated,PTH,ViaDrill
T4C0.300
; #@! TA.AperFunction,Plated,PTH,ComponentDrill
T5C0.650
; #@! TA.AperFunction,Plated,PTH,ComponentDrill
T6C0.700
; #@! TA.AperFunction,Plated,PTH,ComponentDrill
T7C0.900
; #@! TA.AperFunction,Plated,PTH,ComponentDrill
T8C0.965
; #@! TA.AperFunction,Plated,PTH,ComponentDrill
T9C1.000
; #@! TA.AperFunction,Plated,PTH,ComponentDrill
T10C1.020
; #@! TA.AperFunction,Plated,PTH,ComponentDrill
T11C1.245
; #@! TA.AperFunction,Plated,PTH,ComponentDrill
T12C1.321
; #@! TA.AperFunction,Plated,PTH,ComponentDrill
T13C1.499
; #@! TA.AperFunction,Plated,PTH,ComponentDrill
T14C1.520
; #@! TA.AperFunction,Plated,PTH,ComponentDrill
T15C1.549
; #@! TA.AperFunction,Plated,PTH,ComponentDrill
T16C1.600
; #@! TA.AperFunction,Plated,PTH,ComponentDrill
T17C2.500
%
G90
G05
T1
X-36.72Y-67.462
X-36.72Y-68.763
X-36.72Y-70.062
X-36.72Y-71.362
X-36.7Y-82.862
X-36.7Y-84.162
X-36.7Y-85.462
X-36.7Y-86.763
X-35.42Y-67.462
X-35.42Y-68.763
X-35.42Y-70.062
X-35.42Y-71.362
X-35.4Y-82.862
X-35.4Y-84.162
X-35.4Y-85.462
X-35.4Y-86.763
T2
X-110.744Y-202.092
X-110.589Y-206.893
X-109.474Y-204.429
X-105.117Y-193.667
X-105.066Y-195.826
X-103.3Y-156.424
X-103.3Y-156.976
X-103.3Y-158.1
X-101.135Y-185.203
X-93.5Y-161.8
X-90.476Y-175.5
X-89.924Y-175.5
X-89.5Y-188.1
X-80.695Y-190.005
X-80.305Y-190.395
X-78.147Y-65.907
X-78.134Y-66.889
X-78.108Y-66.406
X-78.108Y-67.397
X-78.108Y-67.905
X-78.108Y-68.895
X-78.108Y-69.403
X-76.639Y-193.824
X-76.254Y-66.838
X-76.254Y-68.438
X-76.254Y-69.175
X-76.229Y-66.05
X-76.229Y-67.676
X-75.543Y-66.076
X-75.34Y-67.701
X-75.34Y-68.489
X-75.34Y-69.175
X-75.314Y-66.863
X-74.908Y-64.247
X-74.73Y-66.076
X-74.425Y-67.676
X-74.425Y-68.438
X-74.4Y-64.272
X-74.4Y-66.863
X-74.4Y-69.2
X-73.943Y-66.127
X-73.917Y-64.298
X-73.765Y-66.838
X-73.765Y-67.676
X-73.765Y-68.413
X-73.765Y-69.251
X-73.649Y-194.035
X-73.384Y-64.298
X-73.155Y-67.676
X-73.13Y-68.387
X-73.13Y-69.2
X-73.105Y-66.127
X-73.105Y-66.914
X-72.43Y-194.061
X-71.352Y-65.898
X-71.327Y-67.905
X-71.327Y-68.387
X-71.327Y-68.895
X-71.301Y-67.397
X-71.301Y-69.403
X-69.408Y-193.883
X-69.408Y-196.169
X-62.865Y-201.422
X-61.977Y-187.189
X-61.587Y-187.579
X-60.464Y-212.874
X-57.898Y-210.091
X-57.898Y-212.428
X-53.53Y-201.979
X-47.5Y-157.1
X-44.71Y-192.705
X-44.71Y-195.195
X-42.078Y-192.827
X-40.96Y-192.852
X-38.37Y-192.792
X-38.37Y-195.154
T3
X-41.95Y-115.95
X-40.95Y-115.95
T4
X-118.4Y-205.2
X-118.364Y-204.089
X-117.7Y-206.0
X-116.6Y-134.5
X-116.586Y-200.787
X-116.554Y-123.072
X-116.554Y-125.172
X-116.554Y-127.272
X-116.554Y-129.372
X-116.354Y-118.872
X-116.354Y-120.972
X-116.3Y-197.4
X-115.7Y-135.4
X-115.316Y-211.963
X-115.2Y-204.1
X-114.7Y-136.6
X-114.455Y-208.205
X-114.0Y-137.1
X-112.408Y-201.282
X-108.3Y-138.1
X-108.3Y-139.3
X-108.3Y-140.5
X-108.3Y-141.7
X-108.3Y-142.9
X-108.3Y-144.1
X-108.3Y-145.3
X-108.3Y-146.5
X-108.3Y-147.7
X-108.3Y-148.9
X-108.3Y-150.1
X-108.3Y-151.3
X-108.3Y-152.5
X-108.3Y-153.7
X-108.3Y-154.9
X-108.3Y-156.1
X-108.2Y-211.6
X-107.785Y-185.292
X-107.2Y-211.0
X-106.97Y-95.37
X-106.97Y-96.37
X-106.97Y-97.37
X-106.93Y-98.37
X-106.2Y-106.5
X-105.7Y-106.5
X-105.4Y-94.5
X-105.2Y-106.5
X-105.2Y-156.1
X-105.2Y-212.7
X-104.2Y-211.0
X-103.7Y-139.3
X-103.7Y-140.5
X-103.6Y-138.1
X-103.6Y-141.7
X-103.6Y-142.9
X-103.6Y-144.1
X-103.6Y-146.5
X-103.6Y-150.1
X-103.6Y-151.3
X-103.6Y-152.5
X-103.6Y-153.7
X-103.6Y-154.9
X-103.3Y-155.7
X-102.7Y-210.9
X-102.235Y-183.388
X-101.6Y-96.0
X-101.6Y-106.6
X-101.2Y-134.1
X-101.2Y-211.0
X-100.5Y-96.0
X-100.2Y-106.7
X-99.7Y-211.0
X-99.4Y-96.0
X-98.785Y-186.192
X-98.7Y-106.6
X-98.2Y-154.9
X-97.917Y-195.834
X-97.79Y-193.675
X-97.2Y-106.7
X-96.986Y-189.992
X-96.986Y-190.792
X-96.885Y-189.092
X-95.7Y-106.7
X-94.742Y-206.375
X-94.2Y-106.6
X-92.9Y-95.4
X-92.9Y-96.4
X-92.9Y-97.4
X-92.9Y-98.4
X-92.6Y-106.6
X-91.4Y-189.6
X-91.3Y-94.8
X-91.2Y-106.7
X-89.7Y-106.7
X-89.408Y-131.572
X-88.9Y-196.596
X-88.5Y-189.1
X-88.3Y-106.7
X-88.2Y-94.8
X-87.884Y-190.881
X-87.884Y-190.881
X-87.7Y-106.7
X-86.868Y-195.707
X-86.6Y-95.5
X-86.6Y-96.5
X-86.6Y-97.5
X-86.6Y-98.5
X-86.549Y-190.816
X-85.852Y-121.92
X-84.836Y-120.523
X-84.709Y-118.872
X-84.466Y-194.299
X-83.947Y-130.683
X-83.566Y-129.032
X-80.4Y-68.4
X-79.2Y-83.5
X-79.2Y-87.4
X-78.9Y-69.3
X-77.62Y-109.4
X-77.52Y-108.4
X-77.4Y-63.5
X-77.089Y-137.541
X-76.621Y-196.245
X-76.4Y-61.9
X-75.819Y-147.32
X-75.8Y-79.0
X-75.692Y-148.8
X-75.438Y-146.812
X-75.42Y-102.7
X-75.22Y-111.3
X-75.2Y-79.6
X-74.8Y-148.8
X-74.549Y-149.733
X-74.5Y-79.0
X-74.422Y-151.003
X-74.3Y-156.1
X-74.3Y-157.3
X-73.92Y-114.6
X-73.8Y-73.4
X-73.7Y-63.3
X-73.6Y-77.4
X-73.5Y-84.7
X-73.2Y-83.7
X-73.1Y-71.8
X-72.9Y-138.1
X-72.9Y-142.9
X-72.9Y-144.5
X-72.9Y-145.7
X-72.9Y-147.3
X-72.9Y-149.3
X-72.9Y-151.3
X-72.9Y-153.3
X-72.9Y-154.9
X-72.82Y-106.0
X-72.5Y-85.0
X-72.39Y-138.938
X-72.375Y-62.425
X-72.136Y-139.7
X-72.136Y-147.955
X-72.009Y-147.32
X-72.009Y-149.352
X-72.009Y-153.797
X-71.8Y-84.2
X-71.755Y-150.368
X-71.628Y-140.208
X-71.5Y-138.5
X-71.2Y-143.3
X-71.2Y-150.9
X-71.18Y-144.5
X-71.18Y-145.7
X-71.18Y-146.9
X-71.18Y-148.9
X-71.18Y-152.9
X-71.18Y-154.9
X-71.18Y-156.1
X-71.08Y-157.3
X-70.7Y-103.7
X-69.596Y-153.289
X-68.961Y-145.542
X-68.89Y-58.547
X-68.7Y-139.9
X-68.7Y-140.455
X-68.7Y-141.1
X-68.7Y-141.7
X-68.453Y-146.177
X-68.105Y-48.24
X-68.1Y-139.9
X-68.1Y-140.5
X-68.1Y-141.1
X-68.1Y-141.7
X-67.5Y-139.9
X-67.5Y-140.5
X-67.5Y-141.1
X-67.5Y-141.7
X-67.183Y-161.798
X-67.056Y-156.083
X-66.8Y-51.4
X-66.0Y-56.6
X-65.1Y-145.2
X-65.1Y-152.2
X-65.0Y-155.2
X-65.0Y-158.2
X-64.2Y-103.7
X-63.9Y-35.4
X-63.5Y-124.46
X-63.3Y-79.4
X-62.6Y-56.0
X-61.7Y-148.2
X-61.3Y-149.2
X-61.005Y-48.061
X-60.9Y-146.2
X-60.579Y-14.097
X-60.452Y-194.691
X-60.3Y-147.1
X-60.1Y-121.0
X-59.8Y-160.4
X-59.1Y-79.4
X-57.7Y-62.5
X-57.5Y-60.0
X-56.642Y-121.92
X-56.305Y-91.7
X-56.305Y-92.3
X-56.3Y-91.1
X-56.134Y-154.432
X-56.134Y-167.259
X-55.8Y-55.9
X-55.8Y-91.1
X-55.8Y-91.7
X-55.8Y-92.3
X-55.5Y-75.6
X-55.5Y-76.2
X-55.5Y-76.8
X-55.372Y-153.67
X-55.3Y-91.1
X-55.3Y-91.7
X-55.3Y-92.3
X-54.864Y-134.366
X-54.8Y-91.1
X-54.8Y-91.7
X-54.8Y-92.3
X-54.75Y-75.6
X-54.75Y-76.2
X-54.7Y-76.8
X-54.7Y-174.7
X-54.3Y-91.1
X-54.3Y-91.7
X-54.295Y-92.3
X-54.1Y-75.6
X-54.1Y-76.2
X-54.1Y-76.8
X-53.8Y-160.4
X-53.4Y-168.8
X-53.4Y-175.3
X-53.34Y-214.63
X-53.3Y-171.2
X-53.213Y-31.623
X-52.832Y-129.032
X-52.4Y-168.8
X-52.4Y-171.2
X-52.197Y-78.994
X-51.8Y-130.3
X-51.8Y-160.4
X-51.689Y-175.895
X-51.623Y-25.085
X-51.5Y-83.0
X-51.5Y-157.9
X-51.4Y-168.9
X-51.4Y-171.2
X-51.308Y-72.898
X-51.3Y-88.3
X-51.2Y-188.4
X-51.181Y-95.504
X-50.8Y-183.7
X-50.546Y-185.039
X-50.546Y-185.674
X-50.5Y-178.9
X-50.419Y-158.75
X-50.4Y-168.8
X-50.4Y-171.1
X-49.911Y-193.548
X-49.911Y-194.437
X-49.911Y-195.453
X-49.9Y-84.6
X-49.8Y-160.4
X-49.784Y-177.546
X-49.7Y-187.7
X-49.6Y-179.82
X-49.2Y-88.3
X-49.149Y-72.771
X-49.149Y-95.25
X-49.022Y-28.321
X-49.022Y-31.623
X-48.9Y-80.7
X-48.768Y-177.546
X-48.768Y-181.229
X-48.641Y-120.523
X-48.641Y-129.286
X-48.641Y-169.545
X-48.514Y-184.785
X-48.26Y-78.994
X-48.006Y-11.176
X-48.006Y-20.574
X-47.879Y-181.229
X-47.8Y-160.4
X-47.752Y-120.142
X-47.752Y-129.286
X-47.7Y-195.5
X-47.498Y-46.609
X-47.117Y-186.309
X-47.117Y-187.198
X-46.8Y-170.5
X-46.482Y-29.083
X-45.974Y-154.432
X-45.9Y-188.1
X-45.8Y-172.3
X-45.598Y-46.355
X-45.593Y-182.88
X-45.1Y-125.3
X-44.958Y-153.543
X-44.8Y-160.4
X-44.6Y-123.7
X-44.0Y-114.7
X-44.0Y-172.3
X-43.942Y-188.595
X-43.9Y-170.4
X-43.815Y-174.371
X-43.75Y-68.962
X-43.5Y-84.562
X-43.434Y-178.816
X-43.434Y-183.261
X-43.394Y-116.368
X-43.307Y-179.832
X-43.307Y-180.594
X-43.307Y-181.229
X-43.307Y-181.864
X-43.307Y-182.499
X-43.0Y-127.9
X-42.926Y-187.071
X-42.9Y-126.9
X-42.8Y-189.3
X-42.672Y-183.261
X-42.5Y-171.9
X-42.418Y-178.816
X-42.418Y-179.832
X-42.418Y-180.594
X-42.418Y-181.229
X-42.418Y-181.864
X-42.418Y-182.499
X-42.3Y-118.7
X-42.25Y-175.15
X-42.0Y-170.2
X-41.91Y-183.261
X-41.902Y-176.2
X-41.8Y-160.5
X-41.7Y-114.268
X-41.7Y-118.5
X-41.529Y-178.816
X-41.529Y-179.832
X-41.529Y-180.594
X-41.529Y-181.229
X-41.529Y-181.864
X-41.529Y-182.499
X-41.5Y-167.2
X-41.181Y-114.308
X-41.148Y-183.261
X-41.1Y-65.962
X-40.9Y-91.837
X-40.9Y-175.7
X-40.8Y-76.138
X-40.767Y-129.667
X-40.7Y-117.442
X-40.673Y-114.308
X-40.64Y-178.816
X-40.64Y-179.832
X-40.64Y-180.594
X-40.64Y-181.229
X-40.64Y-181.864
X-40.64Y-182.499
X-40.6Y-81.162
X-40.513Y-70.485
X-40.386Y-183.261
X-39.878Y-178.816
X-39.878Y-179.832
X-39.878Y-180.594
X-39.878Y-181.229
X-39.878Y-181.864
X-39.878Y-182.499
X-39.751Y-129.794
X-39.751Y-183.261
X-39.6Y-189.2
X-39.37Y-12.827
X-39.37Y-21.971
X-39.116Y-178.816
X-39.116Y-179.832
X-39.116Y-180.594
X-39.116Y-181.229
X-39.116Y-181.864
X-39.116Y-182.499
X-39.116Y-183.261
X-38.9Y-189.2
X-38.8Y-167.1
X-38.8Y-172.0
X-37.846Y-96.52
X-37.846Y-174.498
X-37.55Y-175.25
X-37.465Y-172.339
X-37.1Y-177.4
X-36.6Y-191.7
X-36.4Y-180.9
X-36.4Y-181.9
X-35.9Y-183.1
X-35.687Y-195.326
X-35.6Y-187.1
X-35.6Y-189.5
X-35.4Y-31.8
X-35.4Y-32.5
X-35.38Y-175.78
X-35.306Y-177.038
X-35.3Y-170.2
X-34.8Y-130.4
X-34.8Y-172.3
X-34.8Y-180.52
X-34.527Y-183.879
X-34.0Y-88.962
X-33.9Y-73.562
X-33.9Y-174.1
X-33.8Y-173.2
X-33.782Y-180.52
X-33.7Y-171.2
X-33.32Y-76.162
X-33.274Y-183.388
X-33.22Y-77.562
X-32.9Y-176.8
X-32.9Y-178.0
X-32.8Y-171.4
X-32.78Y-175.4
X-32.766Y-180.52
X-32.5Y-177.3
X-32.22Y-76.263
X-32.22Y-77.562
X-32.131Y-195.199
X-32.1Y-181.5
X-31.9Y-180.62
X-31.8Y-171.4
X-31.8Y-179.7
X-31.48Y-182.42
X-31.242Y-212.901
X-31.2Y-31.2
X-30.8Y-173.7
X-30.734Y-129.794
X-30.7Y-171.4
X-30.5Y-99.6
X-30.1Y-67.1
X-30.1Y-74.6
X-30.1Y-90.1
X-30.0Y-82.5
X-29.845Y-170.18
X-29.6Y-99.6
X-29.6Y-212.9
X-29.2Y-185.801
X-28.956Y-215.138
X-28.9Y-29.9
X-28.9Y-30.9
X-28.8Y-99.6
X-28.8Y-130.4
X-28.8Y-170.4
X-28.8Y-172.0
X-28.194Y-185.801
X-28.1Y-82.4
X-28.1Y-94.0
X-28.0Y-66.9
X-28.0Y-74.7
X-28.0Y-90.2
X-28.0Y-96.0
X-27.94Y-16.3
X-27.94Y-212.9
X-27.9Y-17.0
X-27.9Y-17.7
X-27.6Y-110.212
X-27.6Y-112.312
X-27.432Y-153.123
X-27.2Y-107.337
X-26.912Y-24.904
X-26.893Y-24.099
X-26.8Y-82.3
X-26.8Y-130.4
X-26.7Y-90.1
X-26.5Y-66.8
X-26.5Y-74.6
X-26.162Y-152.908
X-25.8Y-129.667
X-25.7Y-101.6
X-25.146Y-160.147
X-25.1Y-92.9
X-24.9Y-92.4
X-24.8Y-130.4
X-24.8Y-163.2
X-24.765Y-183.769
X-24.6Y-92.9
X-24.4Y-92.3
X-23.9Y-92.3
X-23.9Y-92.9
X-23.6Y-33.6
X-23.6Y-34.4
X-23.6Y-35.0
X-23.5Y-92.7
X-23.368Y-180.721
X-23.241Y-215.011
X-23.0Y-33.8
X-23.0Y-34.4
X-23.0Y-35.0
X-22.606Y-179.959
X-22.5Y-152.2
X-22.4Y-33.8
X-22.4Y-34.4
X-22.4Y-35.0
X-22.4Y-134.2
X-22.2Y-99.212
X-21.971Y-181.483
X-21.8Y-33.8
X-21.8Y-34.4
X-21.7Y-34.95
X-20.9Y-33.6
X-20.9Y-34.2
X-20.9Y-35.0
X-20.828Y-182.499
X-20.8Y-19.6
X-20.7Y-96.1
X-20.6Y-94.1
X-20.6Y-110.212
X-20.5Y-112.312
X-20.32Y-180.721
T7
X-78.715Y-199.33
X-77.445Y-201.87
X-76.175Y-199.33
X-74.905Y-201.87
X-73.635Y-199.33
X-72.365Y-201.87
X-71.095Y-199.33
X-69.825Y-201.87
X-68.555Y-199.33
X-67.285Y-201.87
X-48.915Y-199.84
X-47.645Y-202.38
X-46.375Y-199.84
X-45.105Y-202.38
X-43.835Y-199.84
X-42.565Y-202.38
X-41.295Y-199.84
X-40.025Y-202.38
X-38.755Y-199.84
X-37.485Y-202.38
T8
X-88.988Y-200.857
X-88.988Y-202.857
X-88.988Y-204.857
X-88.988Y-206.857
T9
X-56.31Y-82.734
X-53.77Y-82.734
X-51.84Y-106.4
X-49.3Y-106.4
X-46.76Y-106.4
T10
X-79.63Y-212.3
X-77.09Y-212.3
X-68.91Y-212.3
X-66.37Y-212.3
X-49.83Y-212.81
X-47.29Y-212.81
X-39.11Y-212.81
X-36.57Y-212.81
T11
X-62.2Y-26.0
T12
X-111.55Y-215.47
X-110.95Y-210.57
X-96.45Y-210.57
X-95.85Y-215.47
T13
X-62.2Y-18.55
T14
X-36.38Y-3.2
X-31.3Y-3.2
T15
X-91.708Y-200.587
X-91.708Y-207.587
X-86.268Y-200.587
X-86.268Y-207.587
T16
X-80.745Y-205.17
X-65.255Y-205.17
X-50.945Y-205.68
X-35.455Y-205.68
T17
X-115.7Y-215.7
X-114.9Y-3.9
X-97.0Y-22.6
X-97.0Y-42.6
X-97.0Y-60.6
X-24.1Y-4.6
X-23.3Y-210.4
T5
X-60.72Y-215.087G85X-60.72Y-214.687
G05
X-55.88Y-215.087G85X-55.88Y-214.687
G05
T6
X-61.03Y-218.137G85X-61.03Y-217.637
G05
X-55.57Y-218.137G85X-55.57Y-217.637
G05
M30
