%TF.GenerationSoftware,KiCad,Pcbnew,8.0.6*%
%TF.CreationDate,2025-01-01T18:14:10+00:00*%
%TF.ProjectId,srvant-mk2,73727661-6e74-42d6-9d6b-322e6b696361,rev?*%
%TF.SameCoordinates,Original*%
%TF.FileFunction,Drillmap*%
%TF.FilePolarity,Positive*%
%FSLAX45Y45*%
G04 Gerber Fmt 4.5, Leading zero omitted, Abs format (unit mm)*
G04 Created by KiCad (PCBNEW 8.0.6) date 2025-01-01 18:14:10*
%MOMM*%
%LPD*%
G01*
G04 APERTURE LIST*
%ADD10C,0.100000*%
%ADD11C,0.200000*%
%ADD12C,0.109220*%
%ADD13C,0.160020*%
%ADD14C,0.270000*%
%ADD15C,0.325000*%
G04 APERTURE END LIST*
D10*
X-11600000Y-21930000D02*
X-2260000Y-21930000D01*
X-1930000Y-21600000D02*
X-1930000Y-260000D01*
X-11600000Y-21930000D02*
G75*
G02*
X-11930000Y-21600000I0J330000D01*
G01*
X-2260000Y70000D02*
X-11600000Y70000D01*
X-2260000Y70000D02*
G75*
G02*
X-1930000Y-260000I0J-330000D01*
G01*
X-1930000Y-21600000D02*
G75*
G02*
X-2260000Y-21930000I-330000J0D01*
G01*
X-11930000Y-260000D02*
X-11930000Y-21600000D01*
X-11930000Y-260000D02*
G75*
G02*
X-11600000Y70000I330000J0D01*
G01*
D11*
D10*
X-3187500Y-21715000D02*
X-3097500Y-21805000D01*
X-3097500Y-21715000D02*
X-3187500Y-21805000D01*
X-2762500Y-21715000D02*
X-2672500Y-21805000D01*
X-2672500Y-21715000D02*
X-2762500Y-21805000D01*
X-2587500Y-21705000D02*
X-2497500Y-21795000D01*
X-2497500Y-21705000D02*
X-2587500Y-21795000D01*
X-2162500Y-21705000D02*
X-2072500Y-21795000D01*
X-2072500Y-21705000D02*
X-2162500Y-21795000D01*
D12*
X-8637750Y-10260820D02*
G75*
G02*
X-8746970Y-10260820I-54610J0D01*
G01*
X-8746970Y-10260820D02*
G75*
G02*
X-8637750Y-10260820I54610J0D01*
G01*
D13*
X-10692360Y-10180810D02*
X-10692360Y-10340830D01*
X-10772370Y-10260820D02*
X-10612350Y-10260820D01*
D14*
X-10454540Y-12695460D02*
X-10454540Y-12504540D01*
X-10645460Y-12504540D01*
X-10645460Y-12695460D01*
X-10454540Y-12695460D01*
X-10454540Y-17495460D02*
X-10454540Y-17304540D01*
X-10645460Y-17304540D01*
X-10645460Y-17495460D01*
X-10454540Y-17495460D01*
X-7154540Y-12695460D02*
X-7154540Y-12504540D01*
X-7345460Y-12504540D01*
X-7345460Y-12695460D01*
X-7154540Y-12695460D01*
X-7154540Y-17495460D02*
X-7154540Y-17304540D01*
X-7345460Y-17304540D01*
X-7345460Y-17495460D01*
X-7154540Y-17495460D01*
D15*
X-7871500Y-20984500D02*
X-7709000Y-20822000D01*
X-7871500Y-20659500D01*
X-8034000Y-20822000D01*
X-7871500Y-20984500D01*
X-6728500Y-20984500D02*
X-6566000Y-20822000D01*
X-6728500Y-20659500D01*
X-6891000Y-20822000D01*
X-6728500Y-20984500D01*
X-4891500Y-21035500D02*
X-4729000Y-20873000D01*
X-4891500Y-20710500D01*
X-5054000Y-20873000D01*
X-4891500Y-21035500D01*
X-3748500Y-21035500D02*
X-3586000Y-20873000D01*
X-3748500Y-20710500D01*
X-3911000Y-20873000D01*
X-3748500Y-21035500D01*
D11*
X-11674223Y-22246484D02*
X-11674223Y-22046484D01*
X-11674223Y-22046484D02*
X-11626604Y-22046484D01*
X-11626604Y-22046484D02*
X-11598033Y-22056008D01*
X-11598033Y-22056008D02*
X-11578985Y-22075055D01*
X-11578985Y-22075055D02*
X-11569461Y-22094103D01*
X-11569461Y-22094103D02*
X-11559937Y-22132198D01*
X-11559937Y-22132198D02*
X-11559937Y-22160770D01*
X-11559937Y-22160770D02*
X-11569461Y-22198865D01*
X-11569461Y-22198865D02*
X-11578985Y-22217912D01*
X-11578985Y-22217912D02*
X-11598033Y-22236960D01*
X-11598033Y-22236960D02*
X-11626604Y-22246484D01*
X-11626604Y-22246484D02*
X-11674223Y-22246484D01*
X-11474223Y-22246484D02*
X-11474223Y-22113150D01*
X-11474223Y-22151246D02*
X-11464699Y-22132198D01*
X-11464699Y-22132198D02*
X-11455175Y-22122674D01*
X-11455175Y-22122674D02*
X-11436128Y-22113150D01*
X-11436128Y-22113150D02*
X-11417080Y-22113150D01*
X-11350414Y-22246484D02*
X-11350414Y-22113150D01*
X-11350414Y-22046484D02*
X-11359937Y-22056008D01*
X-11359937Y-22056008D02*
X-11350414Y-22065531D01*
X-11350414Y-22065531D02*
X-11340890Y-22056008D01*
X-11340890Y-22056008D02*
X-11350414Y-22046484D01*
X-11350414Y-22046484D02*
X-11350414Y-22065531D01*
X-11226604Y-22246484D02*
X-11245652Y-22236960D01*
X-11245652Y-22236960D02*
X-11255175Y-22217912D01*
X-11255175Y-22217912D02*
X-11255175Y-22046484D01*
X-11121842Y-22246484D02*
X-11140890Y-22236960D01*
X-11140890Y-22236960D02*
X-11150414Y-22217912D01*
X-11150414Y-22217912D02*
X-11150414Y-22046484D01*
X-10893271Y-22246484D02*
X-10893271Y-22046484D01*
X-10893271Y-22046484D02*
X-10826604Y-22189341D01*
X-10826604Y-22189341D02*
X-10759937Y-22046484D01*
X-10759937Y-22046484D02*
X-10759937Y-22246484D01*
X-10578985Y-22246484D02*
X-10578985Y-22141722D01*
X-10578985Y-22141722D02*
X-10588509Y-22122674D01*
X-10588509Y-22122674D02*
X-10607556Y-22113150D01*
X-10607556Y-22113150D02*
X-10645652Y-22113150D01*
X-10645652Y-22113150D02*
X-10664699Y-22122674D01*
X-10578985Y-22236960D02*
X-10598033Y-22246484D01*
X-10598033Y-22246484D02*
X-10645652Y-22246484D01*
X-10645652Y-22246484D02*
X-10664699Y-22236960D01*
X-10664699Y-22236960D02*
X-10674223Y-22217912D01*
X-10674223Y-22217912D02*
X-10674223Y-22198865D01*
X-10674223Y-22198865D02*
X-10664699Y-22179817D01*
X-10664699Y-22179817D02*
X-10645652Y-22170293D01*
X-10645652Y-22170293D02*
X-10598033Y-22170293D01*
X-10598033Y-22170293D02*
X-10578985Y-22160770D01*
X-10483747Y-22113150D02*
X-10483747Y-22313150D01*
X-10483747Y-22122674D02*
X-10464699Y-22113150D01*
X-10464699Y-22113150D02*
X-10426604Y-22113150D01*
X-10426604Y-22113150D02*
X-10407556Y-22122674D01*
X-10407556Y-22122674D02*
X-10398033Y-22132198D01*
X-10398033Y-22132198D02*
X-10388509Y-22151246D01*
X-10388509Y-22151246D02*
X-10388509Y-22208389D01*
X-10388509Y-22208389D02*
X-10398033Y-22227436D01*
X-10398033Y-22227436D02*
X-10407556Y-22236960D01*
X-10407556Y-22236960D02*
X-10426604Y-22246484D01*
X-10426604Y-22246484D02*
X-10464699Y-22246484D01*
X-10464699Y-22246484D02*
X-10483747Y-22236960D01*
X-10302795Y-22227436D02*
X-10293271Y-22236960D01*
X-10293271Y-22236960D02*
X-10302795Y-22246484D01*
X-10302795Y-22246484D02*
X-10312318Y-22236960D01*
X-10312318Y-22236960D02*
X-10302795Y-22227436D01*
X-10302795Y-22227436D02*
X-10302795Y-22246484D01*
X-10302795Y-22122674D02*
X-10293271Y-22132198D01*
X-10293271Y-22132198D02*
X-10302795Y-22141722D01*
X-10302795Y-22141722D02*
X-10312318Y-22132198D01*
X-10312318Y-22132198D02*
X-10302795Y-22122674D01*
X-10302795Y-22122674D02*
X-10302795Y-22141722D01*
D10*
X-12025000Y-22530000D02*
X-11935000Y-22620000D01*
X-11935000Y-22530000D02*
X-12025000Y-22620000D01*
D11*
X-11636128Y-22466484D02*
X-11617080Y-22466484D01*
X-11617080Y-22466484D02*
X-11598033Y-22476008D01*
X-11598033Y-22476008D02*
X-11588509Y-22485531D01*
X-11588509Y-22485531D02*
X-11578985Y-22504579D01*
X-11578985Y-22504579D02*
X-11569461Y-22542674D01*
X-11569461Y-22542674D02*
X-11569461Y-22590293D01*
X-11569461Y-22590293D02*
X-11578985Y-22628388D01*
X-11578985Y-22628388D02*
X-11588509Y-22647436D01*
X-11588509Y-22647436D02*
X-11598033Y-22656960D01*
X-11598033Y-22656960D02*
X-11617080Y-22666484D01*
X-11617080Y-22666484D02*
X-11636128Y-22666484D01*
X-11636128Y-22666484D02*
X-11655175Y-22656960D01*
X-11655175Y-22656960D02*
X-11664699Y-22647436D01*
X-11664699Y-22647436D02*
X-11674223Y-22628388D01*
X-11674223Y-22628388D02*
X-11683747Y-22590293D01*
X-11683747Y-22590293D02*
X-11683747Y-22542674D01*
X-11683747Y-22542674D02*
X-11674223Y-22504579D01*
X-11674223Y-22504579D02*
X-11664699Y-22485531D01*
X-11664699Y-22485531D02*
X-11655175Y-22476008D01*
X-11655175Y-22476008D02*
X-11636128Y-22466484D01*
X-11483747Y-22647436D02*
X-11474223Y-22656960D01*
X-11474223Y-22656960D02*
X-11483747Y-22666484D01*
X-11483747Y-22666484D02*
X-11493271Y-22656960D01*
X-11493271Y-22656960D02*
X-11483747Y-22647436D01*
X-11483747Y-22647436D02*
X-11483747Y-22666484D01*
X-11378985Y-22666484D02*
X-11340890Y-22666484D01*
X-11340890Y-22666484D02*
X-11321842Y-22656960D01*
X-11321842Y-22656960D02*
X-11312318Y-22647436D01*
X-11312318Y-22647436D02*
X-11293271Y-22618865D01*
X-11293271Y-22618865D02*
X-11283747Y-22580769D01*
X-11283747Y-22580769D02*
X-11283747Y-22504579D01*
X-11283747Y-22504579D02*
X-11293271Y-22485531D01*
X-11293271Y-22485531D02*
X-11302794Y-22476008D01*
X-11302794Y-22476008D02*
X-11321842Y-22466484D01*
X-11321842Y-22466484D02*
X-11359937Y-22466484D01*
X-11359937Y-22466484D02*
X-11378985Y-22476008D01*
X-11378985Y-22476008D02*
X-11388509Y-22485531D01*
X-11388509Y-22485531D02*
X-11398033Y-22504579D01*
X-11398033Y-22504579D02*
X-11398033Y-22552198D01*
X-11398033Y-22552198D02*
X-11388509Y-22571246D01*
X-11388509Y-22571246D02*
X-11378985Y-22580769D01*
X-11378985Y-22580769D02*
X-11359937Y-22590293D01*
X-11359937Y-22590293D02*
X-11321842Y-22590293D01*
X-11321842Y-22590293D02*
X-11302794Y-22580769D01*
X-11302794Y-22580769D02*
X-11293271Y-22571246D01*
X-11293271Y-22571246D02*
X-11283747Y-22552198D01*
X-11159937Y-22466484D02*
X-11140890Y-22466484D01*
X-11140890Y-22466484D02*
X-11121842Y-22476008D01*
X-11121842Y-22476008D02*
X-11112318Y-22485531D01*
X-11112318Y-22485531D02*
X-11102795Y-22504579D01*
X-11102795Y-22504579D02*
X-11093271Y-22542674D01*
X-11093271Y-22542674D02*
X-11093271Y-22590293D01*
X-11093271Y-22590293D02*
X-11102795Y-22628388D01*
X-11102795Y-22628388D02*
X-11112318Y-22647436D01*
X-11112318Y-22647436D02*
X-11121842Y-22656960D01*
X-11121842Y-22656960D02*
X-11140890Y-22666484D01*
X-11140890Y-22666484D02*
X-11159937Y-22666484D01*
X-11159937Y-22666484D02*
X-11178985Y-22656960D01*
X-11178985Y-22656960D02*
X-11188509Y-22647436D01*
X-11188509Y-22647436D02*
X-11198033Y-22628388D01*
X-11198033Y-22628388D02*
X-11207556Y-22590293D01*
X-11207556Y-22590293D02*
X-11207556Y-22542674D01*
X-11207556Y-22542674D02*
X-11198033Y-22504579D01*
X-11198033Y-22504579D02*
X-11188509Y-22485531D01*
X-11188509Y-22485531D02*
X-11178985Y-22476008D01*
X-11178985Y-22476008D02*
X-11159937Y-22466484D01*
X-10969461Y-22466484D02*
X-10950414Y-22466484D01*
X-10950414Y-22466484D02*
X-10931366Y-22476008D01*
X-10931366Y-22476008D02*
X-10921842Y-22485531D01*
X-10921842Y-22485531D02*
X-10912318Y-22504579D01*
X-10912318Y-22504579D02*
X-10902795Y-22542674D01*
X-10902795Y-22542674D02*
X-10902795Y-22590293D01*
X-10902795Y-22590293D02*
X-10912318Y-22628388D01*
X-10912318Y-22628388D02*
X-10921842Y-22647436D01*
X-10921842Y-22647436D02*
X-10931366Y-22656960D01*
X-10931366Y-22656960D02*
X-10950414Y-22666484D01*
X-10950414Y-22666484D02*
X-10969461Y-22666484D01*
X-10969461Y-22666484D02*
X-10988509Y-22656960D01*
X-10988509Y-22656960D02*
X-10998033Y-22647436D01*
X-10998033Y-22647436D02*
X-11007556Y-22628388D01*
X-11007556Y-22628388D02*
X-11017080Y-22590293D01*
X-11017080Y-22590293D02*
X-11017080Y-22542674D01*
X-11017080Y-22542674D02*
X-11007556Y-22504579D01*
X-11007556Y-22504579D02*
X-10998033Y-22485531D01*
X-10998033Y-22485531D02*
X-10988509Y-22476008D01*
X-10988509Y-22476008D02*
X-10969461Y-22466484D01*
X-10817080Y-22666484D02*
X-10817080Y-22533150D01*
X-10817080Y-22552198D02*
X-10807556Y-22542674D01*
X-10807556Y-22542674D02*
X-10788509Y-22533150D01*
X-10788509Y-22533150D02*
X-10759937Y-22533150D01*
X-10759937Y-22533150D02*
X-10740890Y-22542674D01*
X-10740890Y-22542674D02*
X-10731366Y-22561722D01*
X-10731366Y-22561722D02*
X-10731366Y-22666484D01*
X-10731366Y-22561722D02*
X-10721842Y-22542674D01*
X-10721842Y-22542674D02*
X-10702795Y-22533150D01*
X-10702795Y-22533150D02*
X-10674223Y-22533150D01*
X-10674223Y-22533150D02*
X-10655175Y-22542674D01*
X-10655175Y-22542674D02*
X-10645652Y-22561722D01*
X-10645652Y-22561722D02*
X-10645652Y-22666484D01*
X-10550414Y-22666484D02*
X-10550414Y-22533150D01*
X-10550414Y-22552198D02*
X-10540890Y-22542674D01*
X-10540890Y-22542674D02*
X-10521842Y-22533150D01*
X-10521842Y-22533150D02*
X-10493271Y-22533150D01*
X-10493271Y-22533150D02*
X-10474223Y-22542674D01*
X-10474223Y-22542674D02*
X-10464699Y-22561722D01*
X-10464699Y-22561722D02*
X-10464699Y-22666484D01*
X-10464699Y-22561722D02*
X-10455175Y-22542674D01*
X-10455175Y-22542674D02*
X-10436128Y-22533150D01*
X-10436128Y-22533150D02*
X-10407556Y-22533150D01*
X-10407556Y-22533150D02*
X-10388509Y-22542674D01*
X-10388509Y-22542674D02*
X-10378985Y-22561722D01*
X-10378985Y-22561722D02*
X-10378985Y-22666484D01*
X-9988509Y-22456960D02*
X-10159937Y-22714103D01*
X-9731366Y-22466484D02*
X-9712318Y-22466484D01*
X-9712318Y-22466484D02*
X-9693271Y-22476008D01*
X-9693271Y-22476008D02*
X-9683747Y-22485531D01*
X-9683747Y-22485531D02*
X-9674223Y-22504579D01*
X-9674223Y-22504579D02*
X-9664699Y-22542674D01*
X-9664699Y-22542674D02*
X-9664699Y-22590293D01*
X-9664699Y-22590293D02*
X-9674223Y-22628388D01*
X-9674223Y-22628388D02*
X-9683747Y-22647436D01*
X-9683747Y-22647436D02*
X-9693271Y-22656960D01*
X-9693271Y-22656960D02*
X-9712318Y-22666484D01*
X-9712318Y-22666484D02*
X-9731366Y-22666484D01*
X-9731366Y-22666484D02*
X-9750413Y-22656960D01*
X-9750413Y-22656960D02*
X-9759937Y-22647436D01*
X-9759937Y-22647436D02*
X-9769461Y-22628388D01*
X-9769461Y-22628388D02*
X-9778985Y-22590293D01*
X-9778985Y-22590293D02*
X-9778985Y-22542674D01*
X-9778985Y-22542674D02*
X-9769461Y-22504579D01*
X-9769461Y-22504579D02*
X-9759937Y-22485531D01*
X-9759937Y-22485531D02*
X-9750413Y-22476008D01*
X-9750413Y-22476008D02*
X-9731366Y-22466484D01*
X-9578985Y-22647436D02*
X-9569461Y-22656960D01*
X-9569461Y-22656960D02*
X-9578985Y-22666484D01*
X-9578985Y-22666484D02*
X-9588509Y-22656960D01*
X-9588509Y-22656960D02*
X-9578985Y-22647436D01*
X-9578985Y-22647436D02*
X-9578985Y-22666484D01*
X-9445652Y-22466484D02*
X-9426604Y-22466484D01*
X-9426604Y-22466484D02*
X-9407556Y-22476008D01*
X-9407556Y-22476008D02*
X-9398032Y-22485531D01*
X-9398032Y-22485531D02*
X-9388509Y-22504579D01*
X-9388509Y-22504579D02*
X-9378985Y-22542674D01*
X-9378985Y-22542674D02*
X-9378985Y-22590293D01*
X-9378985Y-22590293D02*
X-9388509Y-22628388D01*
X-9388509Y-22628388D02*
X-9398032Y-22647436D01*
X-9398032Y-22647436D02*
X-9407556Y-22656960D01*
X-9407556Y-22656960D02*
X-9426604Y-22666484D01*
X-9426604Y-22666484D02*
X-9445652Y-22666484D01*
X-9445652Y-22666484D02*
X-9464699Y-22656960D01*
X-9464699Y-22656960D02*
X-9474223Y-22647436D01*
X-9474223Y-22647436D02*
X-9483747Y-22628388D01*
X-9483747Y-22628388D02*
X-9493271Y-22590293D01*
X-9493271Y-22590293D02*
X-9493271Y-22542674D01*
X-9493271Y-22542674D02*
X-9483747Y-22504579D01*
X-9483747Y-22504579D02*
X-9474223Y-22485531D01*
X-9474223Y-22485531D02*
X-9464699Y-22476008D01*
X-9464699Y-22476008D02*
X-9445652Y-22466484D01*
X-9312318Y-22466484D02*
X-9188509Y-22466484D01*
X-9188509Y-22466484D02*
X-9255175Y-22542674D01*
X-9255175Y-22542674D02*
X-9226604Y-22542674D01*
X-9226604Y-22542674D02*
X-9207556Y-22552198D01*
X-9207556Y-22552198D02*
X-9198032Y-22561722D01*
X-9198032Y-22561722D02*
X-9188509Y-22580769D01*
X-9188509Y-22580769D02*
X-9188509Y-22628388D01*
X-9188509Y-22628388D02*
X-9198032Y-22647436D01*
X-9198032Y-22647436D02*
X-9207556Y-22656960D01*
X-9207556Y-22656960D02*
X-9226604Y-22666484D01*
X-9226604Y-22666484D02*
X-9283747Y-22666484D01*
X-9283747Y-22666484D02*
X-9302794Y-22656960D01*
X-9302794Y-22656960D02*
X-9312318Y-22647436D01*
X-9007556Y-22466484D02*
X-9102794Y-22466484D01*
X-9102794Y-22466484D02*
X-9112318Y-22561722D01*
X-9112318Y-22561722D02*
X-9102794Y-22552198D01*
X-9102794Y-22552198D02*
X-9083747Y-22542674D01*
X-9083747Y-22542674D02*
X-9036128Y-22542674D01*
X-9036128Y-22542674D02*
X-9017080Y-22552198D01*
X-9017080Y-22552198D02*
X-9007556Y-22561722D01*
X-9007556Y-22561722D02*
X-8998032Y-22580769D01*
X-8998032Y-22580769D02*
X-8998032Y-22628388D01*
X-8998032Y-22628388D02*
X-9007556Y-22647436D01*
X-9007556Y-22647436D02*
X-9017080Y-22656960D01*
X-9017080Y-22656960D02*
X-9036128Y-22666484D01*
X-9036128Y-22666484D02*
X-9083747Y-22666484D01*
X-9083747Y-22666484D02*
X-9102794Y-22656960D01*
X-9102794Y-22656960D02*
X-9112318Y-22647436D01*
X-8826604Y-22533150D02*
X-8826604Y-22666484D01*
X-8874223Y-22456960D02*
X-8921842Y-22599817D01*
X-8921842Y-22599817D02*
X-8798032Y-22599817D01*
X-8731366Y-22466484D02*
X-8731366Y-22504579D01*
X-8655175Y-22466484D02*
X-8655175Y-22504579D01*
X-8359937Y-22742674D02*
X-8369461Y-22733150D01*
X-8369461Y-22733150D02*
X-8388508Y-22704579D01*
X-8388508Y-22704579D02*
X-8398032Y-22685531D01*
X-8398032Y-22685531D02*
X-8407556Y-22656960D01*
X-8407556Y-22656960D02*
X-8417080Y-22609341D01*
X-8417080Y-22609341D02*
X-8417080Y-22571246D01*
X-8417080Y-22571246D02*
X-8407556Y-22523627D01*
X-8407556Y-22523627D02*
X-8398032Y-22495055D01*
X-8398032Y-22495055D02*
X-8388508Y-22476008D01*
X-8388508Y-22476008D02*
X-8369461Y-22447436D01*
X-8369461Y-22447436D02*
X-8359937Y-22437912D01*
X-8198032Y-22533150D02*
X-8198032Y-22666484D01*
X-8245651Y-22456960D02*
X-8293270Y-22599817D01*
X-8293270Y-22599817D02*
X-8169461Y-22599817D01*
X-7940889Y-22666484D02*
X-7940889Y-22466484D01*
X-7855175Y-22666484D02*
X-7855175Y-22561722D01*
X-7855175Y-22561722D02*
X-7864699Y-22542674D01*
X-7864699Y-22542674D02*
X-7883746Y-22533150D01*
X-7883746Y-22533150D02*
X-7912318Y-22533150D01*
X-7912318Y-22533150D02*
X-7931366Y-22542674D01*
X-7931366Y-22542674D02*
X-7940889Y-22552198D01*
X-7731366Y-22666484D02*
X-7750413Y-22656960D01*
X-7750413Y-22656960D02*
X-7759937Y-22647436D01*
X-7759937Y-22647436D02*
X-7769461Y-22628388D01*
X-7769461Y-22628388D02*
X-7769461Y-22571246D01*
X-7769461Y-22571246D02*
X-7759937Y-22552198D01*
X-7759937Y-22552198D02*
X-7750413Y-22542674D01*
X-7750413Y-22542674D02*
X-7731366Y-22533150D01*
X-7731366Y-22533150D02*
X-7702794Y-22533150D01*
X-7702794Y-22533150D02*
X-7683746Y-22542674D01*
X-7683746Y-22542674D02*
X-7674223Y-22552198D01*
X-7674223Y-22552198D02*
X-7664699Y-22571246D01*
X-7664699Y-22571246D02*
X-7664699Y-22628388D01*
X-7664699Y-22628388D02*
X-7674223Y-22647436D01*
X-7674223Y-22647436D02*
X-7683746Y-22656960D01*
X-7683746Y-22656960D02*
X-7702794Y-22666484D01*
X-7702794Y-22666484D02*
X-7731366Y-22666484D01*
X-7550413Y-22666484D02*
X-7569461Y-22656960D01*
X-7569461Y-22656960D02*
X-7578985Y-22637912D01*
X-7578985Y-22637912D02*
X-7578985Y-22466484D01*
X-7398032Y-22656960D02*
X-7417080Y-22666484D01*
X-7417080Y-22666484D02*
X-7455175Y-22666484D01*
X-7455175Y-22666484D02*
X-7474223Y-22656960D01*
X-7474223Y-22656960D02*
X-7483746Y-22637912D01*
X-7483746Y-22637912D02*
X-7483746Y-22561722D01*
X-7483746Y-22561722D02*
X-7474223Y-22542674D01*
X-7474223Y-22542674D02*
X-7455175Y-22533150D01*
X-7455175Y-22533150D02*
X-7417080Y-22533150D01*
X-7417080Y-22533150D02*
X-7398032Y-22542674D01*
X-7398032Y-22542674D02*
X-7388508Y-22561722D01*
X-7388508Y-22561722D02*
X-7388508Y-22580769D01*
X-7388508Y-22580769D02*
X-7483746Y-22599817D01*
X-7312318Y-22656960D02*
X-7293270Y-22666484D01*
X-7293270Y-22666484D02*
X-7255175Y-22666484D01*
X-7255175Y-22666484D02*
X-7236127Y-22656960D01*
X-7236127Y-22656960D02*
X-7226604Y-22637912D01*
X-7226604Y-22637912D02*
X-7226604Y-22628388D01*
X-7226604Y-22628388D02*
X-7236127Y-22609341D01*
X-7236127Y-22609341D02*
X-7255175Y-22599817D01*
X-7255175Y-22599817D02*
X-7283746Y-22599817D01*
X-7283746Y-22599817D02*
X-7302794Y-22590293D01*
X-7302794Y-22590293D02*
X-7312318Y-22571246D01*
X-7312318Y-22571246D02*
X-7312318Y-22561722D01*
X-7312318Y-22561722D02*
X-7302794Y-22542674D01*
X-7302794Y-22542674D02*
X-7283746Y-22533150D01*
X-7283746Y-22533150D02*
X-7255175Y-22533150D01*
X-7255175Y-22533150D02*
X-7236127Y-22542674D01*
X-7159937Y-22742674D02*
X-7150413Y-22733150D01*
X-7150413Y-22733150D02*
X-7131365Y-22704579D01*
X-7131365Y-22704579D02*
X-7121842Y-22685531D01*
X-7121842Y-22685531D02*
X-7112318Y-22656960D01*
X-7112318Y-22656960D02*
X-7102794Y-22609341D01*
X-7102794Y-22609341D02*
X-7102794Y-22571246D01*
X-7102794Y-22571246D02*
X-7112318Y-22523627D01*
X-7112318Y-22523627D02*
X-7121842Y-22495055D01*
X-7121842Y-22495055D02*
X-7131365Y-22476008D01*
X-7131365Y-22476008D02*
X-7150413Y-22447436D01*
X-7150413Y-22447436D02*
X-7159937Y-22437912D01*
X-6798032Y-22742674D02*
X-6807556Y-22733150D01*
X-6807556Y-22733150D02*
X-6826604Y-22704579D01*
X-6826604Y-22704579D02*
X-6836127Y-22685531D01*
X-6836127Y-22685531D02*
X-6845651Y-22656960D01*
X-6845651Y-22656960D02*
X-6855175Y-22609341D01*
X-6855175Y-22609341D02*
X-6855175Y-22571246D01*
X-6855175Y-22571246D02*
X-6845651Y-22523627D01*
X-6845651Y-22523627D02*
X-6836127Y-22495055D01*
X-6836127Y-22495055D02*
X-6826604Y-22476008D01*
X-6826604Y-22476008D02*
X-6807556Y-22447436D01*
X-6807556Y-22447436D02*
X-6798032Y-22437912D01*
X-6721842Y-22533150D02*
X-6721842Y-22666484D01*
X-6721842Y-22552198D02*
X-6712318Y-22542674D01*
X-6712318Y-22542674D02*
X-6693270Y-22533150D01*
X-6693270Y-22533150D02*
X-6664699Y-22533150D01*
X-6664699Y-22533150D02*
X-6645651Y-22542674D01*
X-6645651Y-22542674D02*
X-6636127Y-22561722D01*
X-6636127Y-22561722D02*
X-6636127Y-22666484D01*
X-6512318Y-22666484D02*
X-6531365Y-22656960D01*
X-6531365Y-22656960D02*
X-6540889Y-22647436D01*
X-6540889Y-22647436D02*
X-6550413Y-22628388D01*
X-6550413Y-22628388D02*
X-6550413Y-22571246D01*
X-6550413Y-22571246D02*
X-6540889Y-22552198D01*
X-6540889Y-22552198D02*
X-6531365Y-22542674D01*
X-6531365Y-22542674D02*
X-6512318Y-22533150D01*
X-6512318Y-22533150D02*
X-6483746Y-22533150D01*
X-6483746Y-22533150D02*
X-6464699Y-22542674D01*
X-6464699Y-22542674D02*
X-6455175Y-22552198D01*
X-6455175Y-22552198D02*
X-6445651Y-22571246D01*
X-6445651Y-22571246D02*
X-6445651Y-22628388D01*
X-6445651Y-22628388D02*
X-6455175Y-22647436D01*
X-6455175Y-22647436D02*
X-6464699Y-22656960D01*
X-6464699Y-22656960D02*
X-6483746Y-22666484D01*
X-6483746Y-22666484D02*
X-6512318Y-22666484D01*
X-6388508Y-22533150D02*
X-6312318Y-22533150D01*
X-6359937Y-22466484D02*
X-6359937Y-22637912D01*
X-6359937Y-22637912D02*
X-6350413Y-22656960D01*
X-6350413Y-22656960D02*
X-6331365Y-22666484D01*
X-6331365Y-22666484D02*
X-6312318Y-22666484D01*
X-6093270Y-22533150D02*
X-6093270Y-22733150D01*
X-6093270Y-22542674D02*
X-6074223Y-22533150D01*
X-6074223Y-22533150D02*
X-6036127Y-22533150D01*
X-6036127Y-22533150D02*
X-6017080Y-22542674D01*
X-6017080Y-22542674D02*
X-6007556Y-22552198D01*
X-6007556Y-22552198D02*
X-5998032Y-22571246D01*
X-5998032Y-22571246D02*
X-5998032Y-22628388D01*
X-5998032Y-22628388D02*
X-6007556Y-22647436D01*
X-6007556Y-22647436D02*
X-6017080Y-22656960D01*
X-6017080Y-22656960D02*
X-6036127Y-22666484D01*
X-6036127Y-22666484D02*
X-6074223Y-22666484D01*
X-6074223Y-22666484D02*
X-6093270Y-22656960D01*
X-5883746Y-22666484D02*
X-5902794Y-22656960D01*
X-5902794Y-22656960D02*
X-5912318Y-22637912D01*
X-5912318Y-22637912D02*
X-5912318Y-22466484D01*
X-5721842Y-22666484D02*
X-5721842Y-22561722D01*
X-5721842Y-22561722D02*
X-5731365Y-22542674D01*
X-5731365Y-22542674D02*
X-5750413Y-22533150D01*
X-5750413Y-22533150D02*
X-5788508Y-22533150D01*
X-5788508Y-22533150D02*
X-5807556Y-22542674D01*
X-5721842Y-22656960D02*
X-5740889Y-22666484D01*
X-5740889Y-22666484D02*
X-5788508Y-22666484D01*
X-5788508Y-22666484D02*
X-5807556Y-22656960D01*
X-5807556Y-22656960D02*
X-5817080Y-22637912D01*
X-5817080Y-22637912D02*
X-5817080Y-22618865D01*
X-5817080Y-22618865D02*
X-5807556Y-22599817D01*
X-5807556Y-22599817D02*
X-5788508Y-22590293D01*
X-5788508Y-22590293D02*
X-5740889Y-22590293D01*
X-5740889Y-22590293D02*
X-5721842Y-22580769D01*
X-5655175Y-22533150D02*
X-5578985Y-22533150D01*
X-5626603Y-22466484D02*
X-5626603Y-22637912D01*
X-5626603Y-22637912D02*
X-5617080Y-22656960D01*
X-5617080Y-22656960D02*
X-5598032Y-22666484D01*
X-5598032Y-22666484D02*
X-5578985Y-22666484D01*
X-5436127Y-22656960D02*
X-5455175Y-22666484D01*
X-5455175Y-22666484D02*
X-5493270Y-22666484D01*
X-5493270Y-22666484D02*
X-5512318Y-22656960D01*
X-5512318Y-22656960D02*
X-5521842Y-22637912D01*
X-5521842Y-22637912D02*
X-5521842Y-22561722D01*
X-5521842Y-22561722D02*
X-5512318Y-22542674D01*
X-5512318Y-22542674D02*
X-5493270Y-22533150D01*
X-5493270Y-22533150D02*
X-5455175Y-22533150D01*
X-5455175Y-22533150D02*
X-5436127Y-22542674D01*
X-5436127Y-22542674D02*
X-5426604Y-22561722D01*
X-5426604Y-22561722D02*
X-5426604Y-22580769D01*
X-5426604Y-22580769D02*
X-5521842Y-22599817D01*
X-5255175Y-22666484D02*
X-5255175Y-22466484D01*
X-5255175Y-22656960D02*
X-5274223Y-22666484D01*
X-5274223Y-22666484D02*
X-5312318Y-22666484D01*
X-5312318Y-22666484D02*
X-5331365Y-22656960D01*
X-5331365Y-22656960D02*
X-5340889Y-22647436D01*
X-5340889Y-22647436D02*
X-5350413Y-22628388D01*
X-5350413Y-22628388D02*
X-5350413Y-22571246D01*
X-5350413Y-22571246D02*
X-5340889Y-22552198D01*
X-5340889Y-22552198D02*
X-5331365Y-22542674D01*
X-5331365Y-22542674D02*
X-5312318Y-22533150D01*
X-5312318Y-22533150D02*
X-5274223Y-22533150D01*
X-5274223Y-22533150D02*
X-5255175Y-22542674D01*
X-5178984Y-22742674D02*
X-5169461Y-22733150D01*
X-5169461Y-22733150D02*
X-5150413Y-22704579D01*
X-5150413Y-22704579D02*
X-5140889Y-22685531D01*
X-5140889Y-22685531D02*
X-5131365Y-22656960D01*
X-5131365Y-22656960D02*
X-5121842Y-22609341D01*
X-5121842Y-22609341D02*
X-5121842Y-22571246D01*
X-5121842Y-22571246D02*
X-5131365Y-22523627D01*
X-5131365Y-22523627D02*
X-5140889Y-22495055D01*
X-5140889Y-22495055D02*
X-5150413Y-22476008D01*
X-5150413Y-22476008D02*
X-5169461Y-22447436D01*
X-5169461Y-22447436D02*
X-5178984Y-22437912D01*
D12*
X-11935000Y-22839000D02*
G75*
G02*
X-12044220Y-22839000I-54610J0D01*
G01*
X-12044220Y-22839000D02*
G75*
G02*
X-11935000Y-22839000I54610J0D01*
G01*
D11*
X-11569461Y-22930484D02*
X-11683747Y-22930484D01*
X-11626604Y-22930484D02*
X-11626604Y-22730484D01*
X-11626604Y-22730484D02*
X-11645652Y-22759055D01*
X-11645652Y-22759055D02*
X-11664699Y-22778103D01*
X-11664699Y-22778103D02*
X-11683747Y-22787627D01*
X-11483747Y-22911436D02*
X-11474223Y-22920960D01*
X-11474223Y-22920960D02*
X-11483747Y-22930484D01*
X-11483747Y-22930484D02*
X-11493271Y-22920960D01*
X-11493271Y-22920960D02*
X-11483747Y-22911436D01*
X-11483747Y-22911436D02*
X-11483747Y-22930484D01*
X-11350414Y-22730484D02*
X-11331366Y-22730484D01*
X-11331366Y-22730484D02*
X-11312318Y-22740008D01*
X-11312318Y-22740008D02*
X-11302794Y-22749531D01*
X-11302794Y-22749531D02*
X-11293271Y-22768579D01*
X-11293271Y-22768579D02*
X-11283747Y-22806674D01*
X-11283747Y-22806674D02*
X-11283747Y-22854293D01*
X-11283747Y-22854293D02*
X-11293271Y-22892388D01*
X-11293271Y-22892388D02*
X-11302794Y-22911436D01*
X-11302794Y-22911436D02*
X-11312318Y-22920960D01*
X-11312318Y-22920960D02*
X-11331366Y-22930484D01*
X-11331366Y-22930484D02*
X-11350414Y-22930484D01*
X-11350414Y-22930484D02*
X-11369461Y-22920960D01*
X-11369461Y-22920960D02*
X-11378985Y-22911436D01*
X-11378985Y-22911436D02*
X-11388509Y-22892388D01*
X-11388509Y-22892388D02*
X-11398033Y-22854293D01*
X-11398033Y-22854293D02*
X-11398033Y-22806674D01*
X-11398033Y-22806674D02*
X-11388509Y-22768579D01*
X-11388509Y-22768579D02*
X-11378985Y-22749531D01*
X-11378985Y-22749531D02*
X-11369461Y-22740008D01*
X-11369461Y-22740008D02*
X-11350414Y-22730484D01*
X-11188509Y-22930484D02*
X-11150414Y-22930484D01*
X-11150414Y-22930484D02*
X-11131366Y-22920960D01*
X-11131366Y-22920960D02*
X-11121842Y-22911436D01*
X-11121842Y-22911436D02*
X-11102795Y-22882865D01*
X-11102795Y-22882865D02*
X-11093271Y-22844769D01*
X-11093271Y-22844769D02*
X-11093271Y-22768579D01*
X-11093271Y-22768579D02*
X-11102795Y-22749531D01*
X-11102795Y-22749531D02*
X-11112318Y-22740008D01*
X-11112318Y-22740008D02*
X-11131366Y-22730484D01*
X-11131366Y-22730484D02*
X-11169461Y-22730484D01*
X-11169461Y-22730484D02*
X-11188509Y-22740008D01*
X-11188509Y-22740008D02*
X-11198033Y-22749531D01*
X-11198033Y-22749531D02*
X-11207556Y-22768579D01*
X-11207556Y-22768579D02*
X-11207556Y-22816198D01*
X-11207556Y-22816198D02*
X-11198033Y-22835246D01*
X-11198033Y-22835246D02*
X-11188509Y-22844769D01*
X-11188509Y-22844769D02*
X-11169461Y-22854293D01*
X-11169461Y-22854293D02*
X-11131366Y-22854293D01*
X-11131366Y-22854293D02*
X-11112318Y-22844769D01*
X-11112318Y-22844769D02*
X-11102795Y-22835246D01*
X-11102795Y-22835246D02*
X-11093271Y-22816198D01*
X-11017080Y-22749531D02*
X-11007556Y-22740008D01*
X-11007556Y-22740008D02*
X-10988509Y-22730484D01*
X-10988509Y-22730484D02*
X-10940890Y-22730484D01*
X-10940890Y-22730484D02*
X-10921842Y-22740008D01*
X-10921842Y-22740008D02*
X-10912318Y-22749531D01*
X-10912318Y-22749531D02*
X-10902795Y-22768579D01*
X-10902795Y-22768579D02*
X-10902795Y-22787627D01*
X-10902795Y-22787627D02*
X-10912318Y-22816198D01*
X-10912318Y-22816198D02*
X-11026604Y-22930484D01*
X-11026604Y-22930484D02*
X-10902795Y-22930484D01*
X-10817080Y-22930484D02*
X-10817080Y-22797150D01*
X-10817080Y-22816198D02*
X-10807556Y-22806674D01*
X-10807556Y-22806674D02*
X-10788509Y-22797150D01*
X-10788509Y-22797150D02*
X-10759937Y-22797150D01*
X-10759937Y-22797150D02*
X-10740890Y-22806674D01*
X-10740890Y-22806674D02*
X-10731366Y-22825722D01*
X-10731366Y-22825722D02*
X-10731366Y-22930484D01*
X-10731366Y-22825722D02*
X-10721842Y-22806674D01*
X-10721842Y-22806674D02*
X-10702795Y-22797150D01*
X-10702795Y-22797150D02*
X-10674223Y-22797150D01*
X-10674223Y-22797150D02*
X-10655175Y-22806674D01*
X-10655175Y-22806674D02*
X-10645652Y-22825722D01*
X-10645652Y-22825722D02*
X-10645652Y-22930484D01*
X-10550414Y-22930484D02*
X-10550414Y-22797150D01*
X-10550414Y-22816198D02*
X-10540890Y-22806674D01*
X-10540890Y-22806674D02*
X-10521842Y-22797150D01*
X-10521842Y-22797150D02*
X-10493271Y-22797150D01*
X-10493271Y-22797150D02*
X-10474223Y-22806674D01*
X-10474223Y-22806674D02*
X-10464699Y-22825722D01*
X-10464699Y-22825722D02*
X-10464699Y-22930484D01*
X-10464699Y-22825722D02*
X-10455175Y-22806674D01*
X-10455175Y-22806674D02*
X-10436128Y-22797150D01*
X-10436128Y-22797150D02*
X-10407556Y-22797150D01*
X-10407556Y-22797150D02*
X-10388509Y-22806674D01*
X-10388509Y-22806674D02*
X-10378985Y-22825722D01*
X-10378985Y-22825722D02*
X-10378985Y-22930484D01*
X-9988509Y-22720960D02*
X-10159937Y-22978103D01*
X-9731366Y-22730484D02*
X-9712318Y-22730484D01*
X-9712318Y-22730484D02*
X-9693271Y-22740008D01*
X-9693271Y-22740008D02*
X-9683747Y-22749531D01*
X-9683747Y-22749531D02*
X-9674223Y-22768579D01*
X-9674223Y-22768579D02*
X-9664699Y-22806674D01*
X-9664699Y-22806674D02*
X-9664699Y-22854293D01*
X-9664699Y-22854293D02*
X-9674223Y-22892388D01*
X-9674223Y-22892388D02*
X-9683747Y-22911436D01*
X-9683747Y-22911436D02*
X-9693271Y-22920960D01*
X-9693271Y-22920960D02*
X-9712318Y-22930484D01*
X-9712318Y-22930484D02*
X-9731366Y-22930484D01*
X-9731366Y-22930484D02*
X-9750413Y-22920960D01*
X-9750413Y-22920960D02*
X-9759937Y-22911436D01*
X-9759937Y-22911436D02*
X-9769461Y-22892388D01*
X-9769461Y-22892388D02*
X-9778985Y-22854293D01*
X-9778985Y-22854293D02*
X-9778985Y-22806674D01*
X-9778985Y-22806674D02*
X-9769461Y-22768579D01*
X-9769461Y-22768579D02*
X-9759937Y-22749531D01*
X-9759937Y-22749531D02*
X-9750413Y-22740008D01*
X-9750413Y-22740008D02*
X-9731366Y-22730484D01*
X-9578985Y-22911436D02*
X-9569461Y-22920960D01*
X-9569461Y-22920960D02*
X-9578985Y-22930484D01*
X-9578985Y-22930484D02*
X-9588509Y-22920960D01*
X-9588509Y-22920960D02*
X-9578985Y-22911436D01*
X-9578985Y-22911436D02*
X-9578985Y-22930484D01*
X-9445652Y-22730484D02*
X-9426604Y-22730484D01*
X-9426604Y-22730484D02*
X-9407556Y-22740008D01*
X-9407556Y-22740008D02*
X-9398032Y-22749531D01*
X-9398032Y-22749531D02*
X-9388509Y-22768579D01*
X-9388509Y-22768579D02*
X-9378985Y-22806674D01*
X-9378985Y-22806674D02*
X-9378985Y-22854293D01*
X-9378985Y-22854293D02*
X-9388509Y-22892388D01*
X-9388509Y-22892388D02*
X-9398032Y-22911436D01*
X-9398032Y-22911436D02*
X-9407556Y-22920960D01*
X-9407556Y-22920960D02*
X-9426604Y-22930484D01*
X-9426604Y-22930484D02*
X-9445652Y-22930484D01*
X-9445652Y-22930484D02*
X-9464699Y-22920960D01*
X-9464699Y-22920960D02*
X-9474223Y-22911436D01*
X-9474223Y-22911436D02*
X-9483747Y-22892388D01*
X-9483747Y-22892388D02*
X-9493271Y-22854293D01*
X-9493271Y-22854293D02*
X-9493271Y-22806674D01*
X-9493271Y-22806674D02*
X-9483747Y-22768579D01*
X-9483747Y-22768579D02*
X-9474223Y-22749531D01*
X-9474223Y-22749531D02*
X-9464699Y-22740008D01*
X-9464699Y-22740008D02*
X-9445652Y-22730484D01*
X-9207556Y-22797150D02*
X-9207556Y-22930484D01*
X-9255175Y-22720960D02*
X-9302794Y-22863817D01*
X-9302794Y-22863817D02*
X-9178985Y-22863817D01*
X-9121842Y-22730484D02*
X-8998032Y-22730484D01*
X-8998032Y-22730484D02*
X-9064699Y-22806674D01*
X-9064699Y-22806674D02*
X-9036128Y-22806674D01*
X-9036128Y-22806674D02*
X-9017080Y-22816198D01*
X-9017080Y-22816198D02*
X-9007556Y-22825722D01*
X-9007556Y-22825722D02*
X-8998032Y-22844769D01*
X-8998032Y-22844769D02*
X-8998032Y-22892388D01*
X-8998032Y-22892388D02*
X-9007556Y-22911436D01*
X-9007556Y-22911436D02*
X-9017080Y-22920960D01*
X-9017080Y-22920960D02*
X-9036128Y-22930484D01*
X-9036128Y-22930484D02*
X-9093271Y-22930484D01*
X-9093271Y-22930484D02*
X-9112318Y-22920960D01*
X-9112318Y-22920960D02*
X-9121842Y-22911436D01*
X-8874223Y-22730484D02*
X-8855175Y-22730484D01*
X-8855175Y-22730484D02*
X-8836128Y-22740008D01*
X-8836128Y-22740008D02*
X-8826604Y-22749531D01*
X-8826604Y-22749531D02*
X-8817080Y-22768579D01*
X-8817080Y-22768579D02*
X-8807556Y-22806674D01*
X-8807556Y-22806674D02*
X-8807556Y-22854293D01*
X-8807556Y-22854293D02*
X-8817080Y-22892388D01*
X-8817080Y-22892388D02*
X-8826604Y-22911436D01*
X-8826604Y-22911436D02*
X-8836128Y-22920960D01*
X-8836128Y-22920960D02*
X-8855175Y-22930484D01*
X-8855175Y-22930484D02*
X-8874223Y-22930484D01*
X-8874223Y-22930484D02*
X-8893271Y-22920960D01*
X-8893271Y-22920960D02*
X-8902794Y-22911436D01*
X-8902794Y-22911436D02*
X-8912318Y-22892388D01*
X-8912318Y-22892388D02*
X-8921842Y-22854293D01*
X-8921842Y-22854293D02*
X-8921842Y-22806674D01*
X-8921842Y-22806674D02*
X-8912318Y-22768579D01*
X-8912318Y-22768579D02*
X-8902794Y-22749531D01*
X-8902794Y-22749531D02*
X-8893271Y-22740008D01*
X-8893271Y-22740008D02*
X-8874223Y-22730484D01*
X-8731366Y-22730484D02*
X-8731366Y-22768579D01*
X-8655175Y-22730484D02*
X-8655175Y-22768579D01*
X-8359937Y-23006674D02*
X-8369461Y-22997150D01*
X-8369461Y-22997150D02*
X-8388508Y-22968579D01*
X-8388508Y-22968579D02*
X-8398032Y-22949531D01*
X-8398032Y-22949531D02*
X-8407556Y-22920960D01*
X-8407556Y-22920960D02*
X-8417080Y-22873341D01*
X-8417080Y-22873341D02*
X-8417080Y-22835246D01*
X-8417080Y-22835246D02*
X-8407556Y-22787627D01*
X-8407556Y-22787627D02*
X-8398032Y-22759055D01*
X-8398032Y-22759055D02*
X-8388508Y-22740008D01*
X-8388508Y-22740008D02*
X-8369461Y-22711436D01*
X-8369461Y-22711436D02*
X-8359937Y-22701912D01*
X-8178985Y-22930484D02*
X-8293270Y-22930484D01*
X-8236128Y-22930484D02*
X-8236128Y-22730484D01*
X-8236128Y-22730484D02*
X-8255175Y-22759055D01*
X-8255175Y-22759055D02*
X-8274223Y-22778103D01*
X-8274223Y-22778103D02*
X-8293270Y-22787627D01*
X-7940889Y-22930484D02*
X-7940889Y-22730484D01*
X-7855175Y-22930484D02*
X-7855175Y-22825722D01*
X-7855175Y-22825722D02*
X-7864699Y-22806674D01*
X-7864699Y-22806674D02*
X-7883746Y-22797150D01*
X-7883746Y-22797150D02*
X-7912318Y-22797150D01*
X-7912318Y-22797150D02*
X-7931366Y-22806674D01*
X-7931366Y-22806674D02*
X-7940889Y-22816198D01*
X-7731366Y-22930484D02*
X-7750413Y-22920960D01*
X-7750413Y-22920960D02*
X-7759937Y-22911436D01*
X-7759937Y-22911436D02*
X-7769461Y-22892388D01*
X-7769461Y-22892388D02*
X-7769461Y-22835246D01*
X-7769461Y-22835246D02*
X-7759937Y-22816198D01*
X-7759937Y-22816198D02*
X-7750413Y-22806674D01*
X-7750413Y-22806674D02*
X-7731366Y-22797150D01*
X-7731366Y-22797150D02*
X-7702794Y-22797150D01*
X-7702794Y-22797150D02*
X-7683746Y-22806674D01*
X-7683746Y-22806674D02*
X-7674223Y-22816198D01*
X-7674223Y-22816198D02*
X-7664699Y-22835246D01*
X-7664699Y-22835246D02*
X-7664699Y-22892388D01*
X-7664699Y-22892388D02*
X-7674223Y-22911436D01*
X-7674223Y-22911436D02*
X-7683746Y-22920960D01*
X-7683746Y-22920960D02*
X-7702794Y-22930484D01*
X-7702794Y-22930484D02*
X-7731366Y-22930484D01*
X-7550413Y-22930484D02*
X-7569461Y-22920960D01*
X-7569461Y-22920960D02*
X-7578985Y-22901912D01*
X-7578985Y-22901912D02*
X-7578985Y-22730484D01*
X-7398032Y-22920960D02*
X-7417080Y-22930484D01*
X-7417080Y-22930484D02*
X-7455175Y-22930484D01*
X-7455175Y-22930484D02*
X-7474223Y-22920960D01*
X-7474223Y-22920960D02*
X-7483746Y-22901912D01*
X-7483746Y-22901912D02*
X-7483746Y-22825722D01*
X-7483746Y-22825722D02*
X-7474223Y-22806674D01*
X-7474223Y-22806674D02*
X-7455175Y-22797150D01*
X-7455175Y-22797150D02*
X-7417080Y-22797150D01*
X-7417080Y-22797150D02*
X-7398032Y-22806674D01*
X-7398032Y-22806674D02*
X-7388508Y-22825722D01*
X-7388508Y-22825722D02*
X-7388508Y-22844769D01*
X-7388508Y-22844769D02*
X-7483746Y-22863817D01*
X-7321842Y-23006674D02*
X-7312318Y-22997150D01*
X-7312318Y-22997150D02*
X-7293270Y-22968579D01*
X-7293270Y-22968579D02*
X-7283746Y-22949531D01*
X-7283746Y-22949531D02*
X-7274223Y-22920960D01*
X-7274223Y-22920960D02*
X-7264699Y-22873341D01*
X-7264699Y-22873341D02*
X-7264699Y-22835246D01*
X-7264699Y-22835246D02*
X-7274223Y-22787627D01*
X-7274223Y-22787627D02*
X-7283746Y-22759055D01*
X-7283746Y-22759055D02*
X-7293270Y-22740008D01*
X-7293270Y-22740008D02*
X-7312318Y-22711436D01*
X-7312318Y-22711436D02*
X-7321842Y-22701912D01*
X-6959937Y-23006674D02*
X-6969461Y-22997150D01*
X-6969461Y-22997150D02*
X-6988508Y-22968579D01*
X-6988508Y-22968579D02*
X-6998032Y-22949531D01*
X-6998032Y-22949531D02*
X-7007556Y-22920960D01*
X-7007556Y-22920960D02*
X-7017080Y-22873341D01*
X-7017080Y-22873341D02*
X-7017080Y-22835246D01*
X-7017080Y-22835246D02*
X-7007556Y-22787627D01*
X-7007556Y-22787627D02*
X-6998032Y-22759055D01*
X-6998032Y-22759055D02*
X-6988508Y-22740008D01*
X-6988508Y-22740008D02*
X-6969461Y-22711436D01*
X-6969461Y-22711436D02*
X-6959937Y-22701912D01*
X-6883746Y-22797150D02*
X-6883746Y-22930484D01*
X-6883746Y-22816198D02*
X-6874223Y-22806674D01*
X-6874223Y-22806674D02*
X-6855175Y-22797150D01*
X-6855175Y-22797150D02*
X-6826604Y-22797150D01*
X-6826604Y-22797150D02*
X-6807556Y-22806674D01*
X-6807556Y-22806674D02*
X-6798032Y-22825722D01*
X-6798032Y-22825722D02*
X-6798032Y-22930484D01*
X-6674223Y-22930484D02*
X-6693270Y-22920960D01*
X-6693270Y-22920960D02*
X-6702794Y-22911436D01*
X-6702794Y-22911436D02*
X-6712318Y-22892388D01*
X-6712318Y-22892388D02*
X-6712318Y-22835246D01*
X-6712318Y-22835246D02*
X-6702794Y-22816198D01*
X-6702794Y-22816198D02*
X-6693270Y-22806674D01*
X-6693270Y-22806674D02*
X-6674223Y-22797150D01*
X-6674223Y-22797150D02*
X-6645651Y-22797150D01*
X-6645651Y-22797150D02*
X-6626604Y-22806674D01*
X-6626604Y-22806674D02*
X-6617080Y-22816198D01*
X-6617080Y-22816198D02*
X-6607556Y-22835246D01*
X-6607556Y-22835246D02*
X-6607556Y-22892388D01*
X-6607556Y-22892388D02*
X-6617080Y-22911436D01*
X-6617080Y-22911436D02*
X-6626604Y-22920960D01*
X-6626604Y-22920960D02*
X-6645651Y-22930484D01*
X-6645651Y-22930484D02*
X-6674223Y-22930484D01*
X-6550413Y-22797150D02*
X-6474223Y-22797150D01*
X-6521842Y-22730484D02*
X-6521842Y-22901912D01*
X-6521842Y-22901912D02*
X-6512318Y-22920960D01*
X-6512318Y-22920960D02*
X-6493270Y-22930484D01*
X-6493270Y-22930484D02*
X-6474223Y-22930484D01*
X-6255175Y-22797150D02*
X-6255175Y-22997150D01*
X-6255175Y-22806674D02*
X-6236127Y-22797150D01*
X-6236127Y-22797150D02*
X-6198032Y-22797150D01*
X-6198032Y-22797150D02*
X-6178984Y-22806674D01*
X-6178984Y-22806674D02*
X-6169461Y-22816198D01*
X-6169461Y-22816198D02*
X-6159937Y-22835246D01*
X-6159937Y-22835246D02*
X-6159937Y-22892388D01*
X-6159937Y-22892388D02*
X-6169461Y-22911436D01*
X-6169461Y-22911436D02*
X-6178984Y-22920960D01*
X-6178984Y-22920960D02*
X-6198032Y-22930484D01*
X-6198032Y-22930484D02*
X-6236127Y-22930484D01*
X-6236127Y-22930484D02*
X-6255175Y-22920960D01*
X-6045651Y-22930484D02*
X-6064699Y-22920960D01*
X-6064699Y-22920960D02*
X-6074223Y-22901912D01*
X-6074223Y-22901912D02*
X-6074223Y-22730484D01*
X-5883746Y-22930484D02*
X-5883746Y-22825722D01*
X-5883746Y-22825722D02*
X-5893270Y-22806674D01*
X-5893270Y-22806674D02*
X-5912318Y-22797150D01*
X-5912318Y-22797150D02*
X-5950413Y-22797150D01*
X-5950413Y-22797150D02*
X-5969461Y-22806674D01*
X-5883746Y-22920960D02*
X-5902794Y-22930484D01*
X-5902794Y-22930484D02*
X-5950413Y-22930484D01*
X-5950413Y-22930484D02*
X-5969461Y-22920960D01*
X-5969461Y-22920960D02*
X-5978984Y-22901912D01*
X-5978984Y-22901912D02*
X-5978984Y-22882865D01*
X-5978984Y-22882865D02*
X-5969461Y-22863817D01*
X-5969461Y-22863817D02*
X-5950413Y-22854293D01*
X-5950413Y-22854293D02*
X-5902794Y-22854293D01*
X-5902794Y-22854293D02*
X-5883746Y-22844769D01*
X-5817080Y-22797150D02*
X-5740889Y-22797150D01*
X-5788508Y-22730484D02*
X-5788508Y-22901912D01*
X-5788508Y-22901912D02*
X-5778984Y-22920960D01*
X-5778984Y-22920960D02*
X-5759937Y-22930484D01*
X-5759937Y-22930484D02*
X-5740889Y-22930484D01*
X-5598032Y-22920960D02*
X-5617080Y-22930484D01*
X-5617080Y-22930484D02*
X-5655175Y-22930484D01*
X-5655175Y-22930484D02*
X-5674223Y-22920960D01*
X-5674223Y-22920960D02*
X-5683746Y-22901912D01*
X-5683746Y-22901912D02*
X-5683746Y-22825722D01*
X-5683746Y-22825722D02*
X-5674223Y-22806674D01*
X-5674223Y-22806674D02*
X-5655175Y-22797150D01*
X-5655175Y-22797150D02*
X-5617080Y-22797150D01*
X-5617080Y-22797150D02*
X-5598032Y-22806674D01*
X-5598032Y-22806674D02*
X-5588508Y-22825722D01*
X-5588508Y-22825722D02*
X-5588508Y-22844769D01*
X-5588508Y-22844769D02*
X-5683746Y-22863817D01*
X-5417080Y-22930484D02*
X-5417080Y-22730484D01*
X-5417080Y-22920960D02*
X-5436127Y-22930484D01*
X-5436127Y-22930484D02*
X-5474223Y-22930484D01*
X-5474223Y-22930484D02*
X-5493270Y-22920960D01*
X-5493270Y-22920960D02*
X-5502794Y-22911436D01*
X-5502794Y-22911436D02*
X-5512318Y-22892388D01*
X-5512318Y-22892388D02*
X-5512318Y-22835246D01*
X-5512318Y-22835246D02*
X-5502794Y-22816198D01*
X-5502794Y-22816198D02*
X-5493270Y-22806674D01*
X-5493270Y-22806674D02*
X-5474223Y-22797150D01*
X-5474223Y-22797150D02*
X-5436127Y-22797150D01*
X-5436127Y-22797150D02*
X-5417080Y-22806674D01*
X-5340889Y-23006674D02*
X-5331365Y-22997150D01*
X-5331365Y-22997150D02*
X-5312318Y-22968579D01*
X-5312318Y-22968579D02*
X-5302794Y-22949531D01*
X-5302794Y-22949531D02*
X-5293270Y-22920960D01*
X-5293270Y-22920960D02*
X-5283746Y-22873341D01*
X-5283746Y-22873341D02*
X-5283746Y-22835246D01*
X-5283746Y-22835246D02*
X-5293270Y-22787627D01*
X-5293270Y-22787627D02*
X-5302794Y-22759055D01*
X-5302794Y-22759055D02*
X-5312318Y-22740008D01*
X-5312318Y-22740008D02*
X-5331365Y-22711436D01*
X-5331365Y-22711436D02*
X-5340889Y-22701912D01*
D13*
X-12015010Y-23022990D02*
X-12015010Y-23183010D01*
X-12095020Y-23103000D02*
X-11935000Y-23103000D01*
D11*
X-11569461Y-23194484D02*
X-11683747Y-23194484D01*
X-11626604Y-23194484D02*
X-11626604Y-22994484D01*
X-11626604Y-22994484D02*
X-11645652Y-23023055D01*
X-11645652Y-23023055D02*
X-11664699Y-23042103D01*
X-11664699Y-23042103D02*
X-11683747Y-23051627D01*
X-11483747Y-23175436D02*
X-11474223Y-23184960D01*
X-11474223Y-23184960D02*
X-11483747Y-23194484D01*
X-11483747Y-23194484D02*
X-11493271Y-23184960D01*
X-11493271Y-23184960D02*
X-11483747Y-23175436D01*
X-11483747Y-23175436D02*
X-11483747Y-23194484D01*
X-11302794Y-22994484D02*
X-11340890Y-22994484D01*
X-11340890Y-22994484D02*
X-11359937Y-23004008D01*
X-11359937Y-23004008D02*
X-11369461Y-23013531D01*
X-11369461Y-23013531D02*
X-11388509Y-23042103D01*
X-11388509Y-23042103D02*
X-11398033Y-23080198D01*
X-11398033Y-23080198D02*
X-11398033Y-23156388D01*
X-11398033Y-23156388D02*
X-11388509Y-23175436D01*
X-11388509Y-23175436D02*
X-11378985Y-23184960D01*
X-11378985Y-23184960D02*
X-11359937Y-23194484D01*
X-11359937Y-23194484D02*
X-11321842Y-23194484D01*
X-11321842Y-23194484D02*
X-11302794Y-23184960D01*
X-11302794Y-23184960D02*
X-11293271Y-23175436D01*
X-11293271Y-23175436D02*
X-11283747Y-23156388D01*
X-11283747Y-23156388D02*
X-11283747Y-23108769D01*
X-11283747Y-23108769D02*
X-11293271Y-23089722D01*
X-11293271Y-23089722D02*
X-11302794Y-23080198D01*
X-11302794Y-23080198D02*
X-11321842Y-23070674D01*
X-11321842Y-23070674D02*
X-11359937Y-23070674D01*
X-11359937Y-23070674D02*
X-11378985Y-23080198D01*
X-11378985Y-23080198D02*
X-11388509Y-23089722D01*
X-11388509Y-23089722D02*
X-11398033Y-23108769D01*
X-11159937Y-22994484D02*
X-11140890Y-22994484D01*
X-11140890Y-22994484D02*
X-11121842Y-23004008D01*
X-11121842Y-23004008D02*
X-11112318Y-23013531D01*
X-11112318Y-23013531D02*
X-11102795Y-23032579D01*
X-11102795Y-23032579D02*
X-11093271Y-23070674D01*
X-11093271Y-23070674D02*
X-11093271Y-23118293D01*
X-11093271Y-23118293D02*
X-11102795Y-23156388D01*
X-11102795Y-23156388D02*
X-11112318Y-23175436D01*
X-11112318Y-23175436D02*
X-11121842Y-23184960D01*
X-11121842Y-23184960D02*
X-11140890Y-23194484D01*
X-11140890Y-23194484D02*
X-11159937Y-23194484D01*
X-11159937Y-23194484D02*
X-11178985Y-23184960D01*
X-11178985Y-23184960D02*
X-11188509Y-23175436D01*
X-11188509Y-23175436D02*
X-11198033Y-23156388D01*
X-11198033Y-23156388D02*
X-11207556Y-23118293D01*
X-11207556Y-23118293D02*
X-11207556Y-23070674D01*
X-11207556Y-23070674D02*
X-11198033Y-23032579D01*
X-11198033Y-23032579D02*
X-11188509Y-23013531D01*
X-11188509Y-23013531D02*
X-11178985Y-23004008D01*
X-11178985Y-23004008D02*
X-11159937Y-22994484D01*
X-10969461Y-22994484D02*
X-10950414Y-22994484D01*
X-10950414Y-22994484D02*
X-10931366Y-23004008D01*
X-10931366Y-23004008D02*
X-10921842Y-23013531D01*
X-10921842Y-23013531D02*
X-10912318Y-23032579D01*
X-10912318Y-23032579D02*
X-10902795Y-23070674D01*
X-10902795Y-23070674D02*
X-10902795Y-23118293D01*
X-10902795Y-23118293D02*
X-10912318Y-23156388D01*
X-10912318Y-23156388D02*
X-10921842Y-23175436D01*
X-10921842Y-23175436D02*
X-10931366Y-23184960D01*
X-10931366Y-23184960D02*
X-10950414Y-23194484D01*
X-10950414Y-23194484D02*
X-10969461Y-23194484D01*
X-10969461Y-23194484D02*
X-10988509Y-23184960D01*
X-10988509Y-23184960D02*
X-10998033Y-23175436D01*
X-10998033Y-23175436D02*
X-11007556Y-23156388D01*
X-11007556Y-23156388D02*
X-11017080Y-23118293D01*
X-11017080Y-23118293D02*
X-11017080Y-23070674D01*
X-11017080Y-23070674D02*
X-11007556Y-23032579D01*
X-11007556Y-23032579D02*
X-10998033Y-23013531D01*
X-10998033Y-23013531D02*
X-10988509Y-23004008D01*
X-10988509Y-23004008D02*
X-10969461Y-22994484D01*
X-10817080Y-23194484D02*
X-10817080Y-23061150D01*
X-10817080Y-23080198D02*
X-10807556Y-23070674D01*
X-10807556Y-23070674D02*
X-10788509Y-23061150D01*
X-10788509Y-23061150D02*
X-10759937Y-23061150D01*
X-10759937Y-23061150D02*
X-10740890Y-23070674D01*
X-10740890Y-23070674D02*
X-10731366Y-23089722D01*
X-10731366Y-23089722D02*
X-10731366Y-23194484D01*
X-10731366Y-23089722D02*
X-10721842Y-23070674D01*
X-10721842Y-23070674D02*
X-10702795Y-23061150D01*
X-10702795Y-23061150D02*
X-10674223Y-23061150D01*
X-10674223Y-23061150D02*
X-10655175Y-23070674D01*
X-10655175Y-23070674D02*
X-10645652Y-23089722D01*
X-10645652Y-23089722D02*
X-10645652Y-23194484D01*
X-10550414Y-23194484D02*
X-10550414Y-23061150D01*
X-10550414Y-23080198D02*
X-10540890Y-23070674D01*
X-10540890Y-23070674D02*
X-10521842Y-23061150D01*
X-10521842Y-23061150D02*
X-10493271Y-23061150D01*
X-10493271Y-23061150D02*
X-10474223Y-23070674D01*
X-10474223Y-23070674D02*
X-10464699Y-23089722D01*
X-10464699Y-23089722D02*
X-10464699Y-23194484D01*
X-10464699Y-23089722D02*
X-10455175Y-23070674D01*
X-10455175Y-23070674D02*
X-10436128Y-23061150D01*
X-10436128Y-23061150D02*
X-10407556Y-23061150D01*
X-10407556Y-23061150D02*
X-10388509Y-23070674D01*
X-10388509Y-23070674D02*
X-10378985Y-23089722D01*
X-10378985Y-23089722D02*
X-10378985Y-23194484D01*
X-9988509Y-22984960D02*
X-10159937Y-23242103D01*
X-9731366Y-22994484D02*
X-9712318Y-22994484D01*
X-9712318Y-22994484D02*
X-9693271Y-23004008D01*
X-9693271Y-23004008D02*
X-9683747Y-23013531D01*
X-9683747Y-23013531D02*
X-9674223Y-23032579D01*
X-9674223Y-23032579D02*
X-9664699Y-23070674D01*
X-9664699Y-23070674D02*
X-9664699Y-23118293D01*
X-9664699Y-23118293D02*
X-9674223Y-23156388D01*
X-9674223Y-23156388D02*
X-9683747Y-23175436D01*
X-9683747Y-23175436D02*
X-9693271Y-23184960D01*
X-9693271Y-23184960D02*
X-9712318Y-23194484D01*
X-9712318Y-23194484D02*
X-9731366Y-23194484D01*
X-9731366Y-23194484D02*
X-9750413Y-23184960D01*
X-9750413Y-23184960D02*
X-9759937Y-23175436D01*
X-9759937Y-23175436D02*
X-9769461Y-23156388D01*
X-9769461Y-23156388D02*
X-9778985Y-23118293D01*
X-9778985Y-23118293D02*
X-9778985Y-23070674D01*
X-9778985Y-23070674D02*
X-9769461Y-23032579D01*
X-9769461Y-23032579D02*
X-9759937Y-23013531D01*
X-9759937Y-23013531D02*
X-9750413Y-23004008D01*
X-9750413Y-23004008D02*
X-9731366Y-22994484D01*
X-9578985Y-23175436D02*
X-9569461Y-23184960D01*
X-9569461Y-23184960D02*
X-9578985Y-23194484D01*
X-9578985Y-23194484D02*
X-9588509Y-23184960D01*
X-9588509Y-23184960D02*
X-9578985Y-23175436D01*
X-9578985Y-23175436D02*
X-9578985Y-23194484D01*
X-9445652Y-22994484D02*
X-9426604Y-22994484D01*
X-9426604Y-22994484D02*
X-9407556Y-23004008D01*
X-9407556Y-23004008D02*
X-9398032Y-23013531D01*
X-9398032Y-23013531D02*
X-9388509Y-23032579D01*
X-9388509Y-23032579D02*
X-9378985Y-23070674D01*
X-9378985Y-23070674D02*
X-9378985Y-23118293D01*
X-9378985Y-23118293D02*
X-9388509Y-23156388D01*
X-9388509Y-23156388D02*
X-9398032Y-23175436D01*
X-9398032Y-23175436D02*
X-9407556Y-23184960D01*
X-9407556Y-23184960D02*
X-9426604Y-23194484D01*
X-9426604Y-23194484D02*
X-9445652Y-23194484D01*
X-9445652Y-23194484D02*
X-9464699Y-23184960D01*
X-9464699Y-23184960D02*
X-9474223Y-23175436D01*
X-9474223Y-23175436D02*
X-9483747Y-23156388D01*
X-9483747Y-23156388D02*
X-9493271Y-23118293D01*
X-9493271Y-23118293D02*
X-9493271Y-23070674D01*
X-9493271Y-23070674D02*
X-9483747Y-23032579D01*
X-9483747Y-23032579D02*
X-9474223Y-23013531D01*
X-9474223Y-23013531D02*
X-9464699Y-23004008D01*
X-9464699Y-23004008D02*
X-9445652Y-22994484D01*
X-9207556Y-22994484D02*
X-9245652Y-22994484D01*
X-9245652Y-22994484D02*
X-9264699Y-23004008D01*
X-9264699Y-23004008D02*
X-9274223Y-23013531D01*
X-9274223Y-23013531D02*
X-9293271Y-23042103D01*
X-9293271Y-23042103D02*
X-9302794Y-23080198D01*
X-9302794Y-23080198D02*
X-9302794Y-23156388D01*
X-9302794Y-23156388D02*
X-9293271Y-23175436D01*
X-9293271Y-23175436D02*
X-9283747Y-23184960D01*
X-9283747Y-23184960D02*
X-9264699Y-23194484D01*
X-9264699Y-23194484D02*
X-9226604Y-23194484D01*
X-9226604Y-23194484D02*
X-9207556Y-23184960D01*
X-9207556Y-23184960D02*
X-9198032Y-23175436D01*
X-9198032Y-23175436D02*
X-9188509Y-23156388D01*
X-9188509Y-23156388D02*
X-9188509Y-23108769D01*
X-9188509Y-23108769D02*
X-9198032Y-23089722D01*
X-9198032Y-23089722D02*
X-9207556Y-23080198D01*
X-9207556Y-23080198D02*
X-9226604Y-23070674D01*
X-9226604Y-23070674D02*
X-9264699Y-23070674D01*
X-9264699Y-23070674D02*
X-9283747Y-23080198D01*
X-9283747Y-23080198D02*
X-9293271Y-23089722D01*
X-9293271Y-23089722D02*
X-9302794Y-23108769D01*
X-9121842Y-22994484D02*
X-8998032Y-22994484D01*
X-8998032Y-22994484D02*
X-9064699Y-23070674D01*
X-9064699Y-23070674D02*
X-9036128Y-23070674D01*
X-9036128Y-23070674D02*
X-9017080Y-23080198D01*
X-9017080Y-23080198D02*
X-9007556Y-23089722D01*
X-9007556Y-23089722D02*
X-8998032Y-23108769D01*
X-8998032Y-23108769D02*
X-8998032Y-23156388D01*
X-8998032Y-23156388D02*
X-9007556Y-23175436D01*
X-9007556Y-23175436D02*
X-9017080Y-23184960D01*
X-9017080Y-23184960D02*
X-9036128Y-23194484D01*
X-9036128Y-23194484D02*
X-9093271Y-23194484D01*
X-9093271Y-23194484D02*
X-9112318Y-23184960D01*
X-9112318Y-23184960D02*
X-9121842Y-23175436D01*
X-8874223Y-22994484D02*
X-8855175Y-22994484D01*
X-8855175Y-22994484D02*
X-8836128Y-23004008D01*
X-8836128Y-23004008D02*
X-8826604Y-23013531D01*
X-8826604Y-23013531D02*
X-8817080Y-23032579D01*
X-8817080Y-23032579D02*
X-8807556Y-23070674D01*
X-8807556Y-23070674D02*
X-8807556Y-23118293D01*
X-8807556Y-23118293D02*
X-8817080Y-23156388D01*
X-8817080Y-23156388D02*
X-8826604Y-23175436D01*
X-8826604Y-23175436D02*
X-8836128Y-23184960D01*
X-8836128Y-23184960D02*
X-8855175Y-23194484D01*
X-8855175Y-23194484D02*
X-8874223Y-23194484D01*
X-8874223Y-23194484D02*
X-8893271Y-23184960D01*
X-8893271Y-23184960D02*
X-8902794Y-23175436D01*
X-8902794Y-23175436D02*
X-8912318Y-23156388D01*
X-8912318Y-23156388D02*
X-8921842Y-23118293D01*
X-8921842Y-23118293D02*
X-8921842Y-23070674D01*
X-8921842Y-23070674D02*
X-8912318Y-23032579D01*
X-8912318Y-23032579D02*
X-8902794Y-23013531D01*
X-8902794Y-23013531D02*
X-8893271Y-23004008D01*
X-8893271Y-23004008D02*
X-8874223Y-22994484D01*
X-8731366Y-22994484D02*
X-8731366Y-23032579D01*
X-8655175Y-22994484D02*
X-8655175Y-23032579D01*
X-8359937Y-23270674D02*
X-8369461Y-23261150D01*
X-8369461Y-23261150D02*
X-8388508Y-23232579D01*
X-8388508Y-23232579D02*
X-8398032Y-23213531D01*
X-8398032Y-23213531D02*
X-8407556Y-23184960D01*
X-8407556Y-23184960D02*
X-8417080Y-23137341D01*
X-8417080Y-23137341D02*
X-8417080Y-23099246D01*
X-8417080Y-23099246D02*
X-8407556Y-23051627D01*
X-8407556Y-23051627D02*
X-8398032Y-23023055D01*
X-8398032Y-23023055D02*
X-8388508Y-23004008D01*
X-8388508Y-23004008D02*
X-8369461Y-22975436D01*
X-8369461Y-22975436D02*
X-8359937Y-22965912D01*
X-8178985Y-23194484D02*
X-8293270Y-23194484D01*
X-8236128Y-23194484D02*
X-8236128Y-22994484D01*
X-8236128Y-22994484D02*
X-8255175Y-23023055D01*
X-8255175Y-23023055D02*
X-8274223Y-23042103D01*
X-8274223Y-23042103D02*
X-8293270Y-23051627D01*
X-7940889Y-23194484D02*
X-7940889Y-22994484D01*
X-7855175Y-23194484D02*
X-7855175Y-23089722D01*
X-7855175Y-23089722D02*
X-7864699Y-23070674D01*
X-7864699Y-23070674D02*
X-7883746Y-23061150D01*
X-7883746Y-23061150D02*
X-7912318Y-23061150D01*
X-7912318Y-23061150D02*
X-7931366Y-23070674D01*
X-7931366Y-23070674D02*
X-7940889Y-23080198D01*
X-7731366Y-23194484D02*
X-7750413Y-23184960D01*
X-7750413Y-23184960D02*
X-7759937Y-23175436D01*
X-7759937Y-23175436D02*
X-7769461Y-23156388D01*
X-7769461Y-23156388D02*
X-7769461Y-23099246D01*
X-7769461Y-23099246D02*
X-7759937Y-23080198D01*
X-7759937Y-23080198D02*
X-7750413Y-23070674D01*
X-7750413Y-23070674D02*
X-7731366Y-23061150D01*
X-7731366Y-23061150D02*
X-7702794Y-23061150D01*
X-7702794Y-23061150D02*
X-7683746Y-23070674D01*
X-7683746Y-23070674D02*
X-7674223Y-23080198D01*
X-7674223Y-23080198D02*
X-7664699Y-23099246D01*
X-7664699Y-23099246D02*
X-7664699Y-23156388D01*
X-7664699Y-23156388D02*
X-7674223Y-23175436D01*
X-7674223Y-23175436D02*
X-7683746Y-23184960D01*
X-7683746Y-23184960D02*
X-7702794Y-23194484D01*
X-7702794Y-23194484D02*
X-7731366Y-23194484D01*
X-7550413Y-23194484D02*
X-7569461Y-23184960D01*
X-7569461Y-23184960D02*
X-7578985Y-23165912D01*
X-7578985Y-23165912D02*
X-7578985Y-22994484D01*
X-7398032Y-23184960D02*
X-7417080Y-23194484D01*
X-7417080Y-23194484D02*
X-7455175Y-23194484D01*
X-7455175Y-23194484D02*
X-7474223Y-23184960D01*
X-7474223Y-23184960D02*
X-7483746Y-23165912D01*
X-7483746Y-23165912D02*
X-7483746Y-23089722D01*
X-7483746Y-23089722D02*
X-7474223Y-23070674D01*
X-7474223Y-23070674D02*
X-7455175Y-23061150D01*
X-7455175Y-23061150D02*
X-7417080Y-23061150D01*
X-7417080Y-23061150D02*
X-7398032Y-23070674D01*
X-7398032Y-23070674D02*
X-7388508Y-23089722D01*
X-7388508Y-23089722D02*
X-7388508Y-23108769D01*
X-7388508Y-23108769D02*
X-7483746Y-23127817D01*
X-7321842Y-23270674D02*
X-7312318Y-23261150D01*
X-7312318Y-23261150D02*
X-7293270Y-23232579D01*
X-7293270Y-23232579D02*
X-7283746Y-23213531D01*
X-7283746Y-23213531D02*
X-7274223Y-23184960D01*
X-7274223Y-23184960D02*
X-7264699Y-23137341D01*
X-7264699Y-23137341D02*
X-7264699Y-23099246D01*
X-7264699Y-23099246D02*
X-7274223Y-23051627D01*
X-7274223Y-23051627D02*
X-7283746Y-23023055D01*
X-7283746Y-23023055D02*
X-7293270Y-23004008D01*
X-7293270Y-23004008D02*
X-7312318Y-22975436D01*
X-7312318Y-22975436D02*
X-7321842Y-22965912D01*
X-6959937Y-23270674D02*
X-6969461Y-23261150D01*
X-6969461Y-23261150D02*
X-6988508Y-23232579D01*
X-6988508Y-23232579D02*
X-6998032Y-23213531D01*
X-6998032Y-23213531D02*
X-7007556Y-23184960D01*
X-7007556Y-23184960D02*
X-7017080Y-23137341D01*
X-7017080Y-23137341D02*
X-7017080Y-23099246D01*
X-7017080Y-23099246D02*
X-7007556Y-23051627D01*
X-7007556Y-23051627D02*
X-6998032Y-23023055D01*
X-6998032Y-23023055D02*
X-6988508Y-23004008D01*
X-6988508Y-23004008D02*
X-6969461Y-22975436D01*
X-6969461Y-22975436D02*
X-6959937Y-22965912D01*
X-6883746Y-23061150D02*
X-6883746Y-23194484D01*
X-6883746Y-23080198D02*
X-6874223Y-23070674D01*
X-6874223Y-23070674D02*
X-6855175Y-23061150D01*
X-6855175Y-23061150D02*
X-6826604Y-23061150D01*
X-6826604Y-23061150D02*
X-6807556Y-23070674D01*
X-6807556Y-23070674D02*
X-6798032Y-23089722D01*
X-6798032Y-23089722D02*
X-6798032Y-23194484D01*
X-6674223Y-23194484D02*
X-6693270Y-23184960D01*
X-6693270Y-23184960D02*
X-6702794Y-23175436D01*
X-6702794Y-23175436D02*
X-6712318Y-23156388D01*
X-6712318Y-23156388D02*
X-6712318Y-23099246D01*
X-6712318Y-23099246D02*
X-6702794Y-23080198D01*
X-6702794Y-23080198D02*
X-6693270Y-23070674D01*
X-6693270Y-23070674D02*
X-6674223Y-23061150D01*
X-6674223Y-23061150D02*
X-6645651Y-23061150D01*
X-6645651Y-23061150D02*
X-6626604Y-23070674D01*
X-6626604Y-23070674D02*
X-6617080Y-23080198D01*
X-6617080Y-23080198D02*
X-6607556Y-23099246D01*
X-6607556Y-23099246D02*
X-6607556Y-23156388D01*
X-6607556Y-23156388D02*
X-6617080Y-23175436D01*
X-6617080Y-23175436D02*
X-6626604Y-23184960D01*
X-6626604Y-23184960D02*
X-6645651Y-23194484D01*
X-6645651Y-23194484D02*
X-6674223Y-23194484D01*
X-6550413Y-23061150D02*
X-6474223Y-23061150D01*
X-6521842Y-22994484D02*
X-6521842Y-23165912D01*
X-6521842Y-23165912D02*
X-6512318Y-23184960D01*
X-6512318Y-23184960D02*
X-6493270Y-23194484D01*
X-6493270Y-23194484D02*
X-6474223Y-23194484D01*
X-6255175Y-23061150D02*
X-6255175Y-23261150D01*
X-6255175Y-23070674D02*
X-6236127Y-23061150D01*
X-6236127Y-23061150D02*
X-6198032Y-23061150D01*
X-6198032Y-23061150D02*
X-6178984Y-23070674D01*
X-6178984Y-23070674D02*
X-6169461Y-23080198D01*
X-6169461Y-23080198D02*
X-6159937Y-23099246D01*
X-6159937Y-23099246D02*
X-6159937Y-23156388D01*
X-6159937Y-23156388D02*
X-6169461Y-23175436D01*
X-6169461Y-23175436D02*
X-6178984Y-23184960D01*
X-6178984Y-23184960D02*
X-6198032Y-23194484D01*
X-6198032Y-23194484D02*
X-6236127Y-23194484D01*
X-6236127Y-23194484D02*
X-6255175Y-23184960D01*
X-6045651Y-23194484D02*
X-6064699Y-23184960D01*
X-6064699Y-23184960D02*
X-6074223Y-23165912D01*
X-6074223Y-23165912D02*
X-6074223Y-22994484D01*
X-5883746Y-23194484D02*
X-5883746Y-23089722D01*
X-5883746Y-23089722D02*
X-5893270Y-23070674D01*
X-5893270Y-23070674D02*
X-5912318Y-23061150D01*
X-5912318Y-23061150D02*
X-5950413Y-23061150D01*
X-5950413Y-23061150D02*
X-5969461Y-23070674D01*
X-5883746Y-23184960D02*
X-5902794Y-23194484D01*
X-5902794Y-23194484D02*
X-5950413Y-23194484D01*
X-5950413Y-23194484D02*
X-5969461Y-23184960D01*
X-5969461Y-23184960D02*
X-5978984Y-23165912D01*
X-5978984Y-23165912D02*
X-5978984Y-23146865D01*
X-5978984Y-23146865D02*
X-5969461Y-23127817D01*
X-5969461Y-23127817D02*
X-5950413Y-23118293D01*
X-5950413Y-23118293D02*
X-5902794Y-23118293D01*
X-5902794Y-23118293D02*
X-5883746Y-23108769D01*
X-5817080Y-23061150D02*
X-5740889Y-23061150D01*
X-5788508Y-22994484D02*
X-5788508Y-23165912D01*
X-5788508Y-23165912D02*
X-5778984Y-23184960D01*
X-5778984Y-23184960D02*
X-5759937Y-23194484D01*
X-5759937Y-23194484D02*
X-5740889Y-23194484D01*
X-5598032Y-23184960D02*
X-5617080Y-23194484D01*
X-5617080Y-23194484D02*
X-5655175Y-23194484D01*
X-5655175Y-23194484D02*
X-5674223Y-23184960D01*
X-5674223Y-23184960D02*
X-5683746Y-23165912D01*
X-5683746Y-23165912D02*
X-5683746Y-23089722D01*
X-5683746Y-23089722D02*
X-5674223Y-23070674D01*
X-5674223Y-23070674D02*
X-5655175Y-23061150D01*
X-5655175Y-23061150D02*
X-5617080Y-23061150D01*
X-5617080Y-23061150D02*
X-5598032Y-23070674D01*
X-5598032Y-23070674D02*
X-5588508Y-23089722D01*
X-5588508Y-23089722D02*
X-5588508Y-23108769D01*
X-5588508Y-23108769D02*
X-5683746Y-23127817D01*
X-5417080Y-23194484D02*
X-5417080Y-22994484D01*
X-5417080Y-23184960D02*
X-5436127Y-23194484D01*
X-5436127Y-23194484D02*
X-5474223Y-23194484D01*
X-5474223Y-23194484D02*
X-5493270Y-23184960D01*
X-5493270Y-23184960D02*
X-5502794Y-23175436D01*
X-5502794Y-23175436D02*
X-5512318Y-23156388D01*
X-5512318Y-23156388D02*
X-5512318Y-23099246D01*
X-5512318Y-23099246D02*
X-5502794Y-23080198D01*
X-5502794Y-23080198D02*
X-5493270Y-23070674D01*
X-5493270Y-23070674D02*
X-5474223Y-23061150D01*
X-5474223Y-23061150D02*
X-5436127Y-23061150D01*
X-5436127Y-23061150D02*
X-5417080Y-23070674D01*
X-5340889Y-23270674D02*
X-5331365Y-23261150D01*
X-5331365Y-23261150D02*
X-5312318Y-23232579D01*
X-5312318Y-23232579D02*
X-5302794Y-23213531D01*
X-5302794Y-23213531D02*
X-5293270Y-23184960D01*
X-5293270Y-23184960D02*
X-5283746Y-23137341D01*
X-5283746Y-23137341D02*
X-5283746Y-23099246D01*
X-5283746Y-23099246D02*
X-5293270Y-23051627D01*
X-5293270Y-23051627D02*
X-5302794Y-23023055D01*
X-5302794Y-23023055D02*
X-5312318Y-23004008D01*
X-5312318Y-23004008D02*
X-5331365Y-22975436D01*
X-5331365Y-22975436D02*
X-5340889Y-22965912D01*
X-11964289Y-23453731D02*
X-11964289Y-23312309D01*
X-12105711Y-23312309D01*
X-12105711Y-23453731D01*
X-11964289Y-23453731D01*
X-11683747Y-23293551D02*
X-11674223Y-23284028D01*
X-11674223Y-23284028D02*
X-11655175Y-23274504D01*
X-11655175Y-23274504D02*
X-11607556Y-23274504D01*
X-11607556Y-23274504D02*
X-11588509Y-23284028D01*
X-11588509Y-23284028D02*
X-11578985Y-23293551D01*
X-11578985Y-23293551D02*
X-11569461Y-23312599D01*
X-11569461Y-23312599D02*
X-11569461Y-23331647D01*
X-11569461Y-23331647D02*
X-11578985Y-23360218D01*
X-11578985Y-23360218D02*
X-11693271Y-23474504D01*
X-11693271Y-23474504D02*
X-11569461Y-23474504D01*
X-11483747Y-23455456D02*
X-11474223Y-23464980D01*
X-11474223Y-23464980D02*
X-11483747Y-23474504D01*
X-11483747Y-23474504D02*
X-11493271Y-23464980D01*
X-11493271Y-23464980D02*
X-11483747Y-23455456D01*
X-11483747Y-23455456D02*
X-11483747Y-23474504D01*
X-11407556Y-23274504D02*
X-11274223Y-23274504D01*
X-11274223Y-23274504D02*
X-11359937Y-23474504D01*
X-11159937Y-23274504D02*
X-11140890Y-23274504D01*
X-11140890Y-23274504D02*
X-11121842Y-23284028D01*
X-11121842Y-23284028D02*
X-11112318Y-23293551D01*
X-11112318Y-23293551D02*
X-11102795Y-23312599D01*
X-11102795Y-23312599D02*
X-11093271Y-23350694D01*
X-11093271Y-23350694D02*
X-11093271Y-23398313D01*
X-11093271Y-23398313D02*
X-11102795Y-23436408D01*
X-11102795Y-23436408D02*
X-11112318Y-23455456D01*
X-11112318Y-23455456D02*
X-11121842Y-23464980D01*
X-11121842Y-23464980D02*
X-11140890Y-23474504D01*
X-11140890Y-23474504D02*
X-11159937Y-23474504D01*
X-11159937Y-23474504D02*
X-11178985Y-23464980D01*
X-11178985Y-23464980D02*
X-11188509Y-23455456D01*
X-11188509Y-23455456D02*
X-11198033Y-23436408D01*
X-11198033Y-23436408D02*
X-11207556Y-23398313D01*
X-11207556Y-23398313D02*
X-11207556Y-23350694D01*
X-11207556Y-23350694D02*
X-11198033Y-23312599D01*
X-11198033Y-23312599D02*
X-11188509Y-23293551D01*
X-11188509Y-23293551D02*
X-11178985Y-23284028D01*
X-11178985Y-23284028D02*
X-11159937Y-23274504D01*
X-10969461Y-23274504D02*
X-10950414Y-23274504D01*
X-10950414Y-23274504D02*
X-10931366Y-23284028D01*
X-10931366Y-23284028D02*
X-10921842Y-23293551D01*
X-10921842Y-23293551D02*
X-10912318Y-23312599D01*
X-10912318Y-23312599D02*
X-10902795Y-23350694D01*
X-10902795Y-23350694D02*
X-10902795Y-23398313D01*
X-10902795Y-23398313D02*
X-10912318Y-23436408D01*
X-10912318Y-23436408D02*
X-10921842Y-23455456D01*
X-10921842Y-23455456D02*
X-10931366Y-23464980D01*
X-10931366Y-23464980D02*
X-10950414Y-23474504D01*
X-10950414Y-23474504D02*
X-10969461Y-23474504D01*
X-10969461Y-23474504D02*
X-10988509Y-23464980D01*
X-10988509Y-23464980D02*
X-10998033Y-23455456D01*
X-10998033Y-23455456D02*
X-11007556Y-23436408D01*
X-11007556Y-23436408D02*
X-11017080Y-23398313D01*
X-11017080Y-23398313D02*
X-11017080Y-23350694D01*
X-11017080Y-23350694D02*
X-11007556Y-23312599D01*
X-11007556Y-23312599D02*
X-10998033Y-23293551D01*
X-10998033Y-23293551D02*
X-10988509Y-23284028D01*
X-10988509Y-23284028D02*
X-10969461Y-23274504D01*
X-10817080Y-23474504D02*
X-10817080Y-23341170D01*
X-10817080Y-23360218D02*
X-10807556Y-23350694D01*
X-10807556Y-23350694D02*
X-10788509Y-23341170D01*
X-10788509Y-23341170D02*
X-10759937Y-23341170D01*
X-10759937Y-23341170D02*
X-10740890Y-23350694D01*
X-10740890Y-23350694D02*
X-10731366Y-23369742D01*
X-10731366Y-23369742D02*
X-10731366Y-23474504D01*
X-10731366Y-23369742D02*
X-10721842Y-23350694D01*
X-10721842Y-23350694D02*
X-10702795Y-23341170D01*
X-10702795Y-23341170D02*
X-10674223Y-23341170D01*
X-10674223Y-23341170D02*
X-10655175Y-23350694D01*
X-10655175Y-23350694D02*
X-10645652Y-23369742D01*
X-10645652Y-23369742D02*
X-10645652Y-23474504D01*
X-10550414Y-23474504D02*
X-10550414Y-23341170D01*
X-10550414Y-23360218D02*
X-10540890Y-23350694D01*
X-10540890Y-23350694D02*
X-10521842Y-23341170D01*
X-10521842Y-23341170D02*
X-10493271Y-23341170D01*
X-10493271Y-23341170D02*
X-10474223Y-23350694D01*
X-10474223Y-23350694D02*
X-10464699Y-23369742D01*
X-10464699Y-23369742D02*
X-10464699Y-23474504D01*
X-10464699Y-23369742D02*
X-10455175Y-23350694D01*
X-10455175Y-23350694D02*
X-10436128Y-23341170D01*
X-10436128Y-23341170D02*
X-10407556Y-23341170D01*
X-10407556Y-23341170D02*
X-10388509Y-23350694D01*
X-10388509Y-23350694D02*
X-10378985Y-23369742D01*
X-10378985Y-23369742D02*
X-10378985Y-23474504D01*
X-9988509Y-23264980D02*
X-10159937Y-23522123D01*
X-9731366Y-23274504D02*
X-9712318Y-23274504D01*
X-9712318Y-23274504D02*
X-9693271Y-23284028D01*
X-9693271Y-23284028D02*
X-9683747Y-23293551D01*
X-9683747Y-23293551D02*
X-9674223Y-23312599D01*
X-9674223Y-23312599D02*
X-9664699Y-23350694D01*
X-9664699Y-23350694D02*
X-9664699Y-23398313D01*
X-9664699Y-23398313D02*
X-9674223Y-23436408D01*
X-9674223Y-23436408D02*
X-9683747Y-23455456D01*
X-9683747Y-23455456D02*
X-9693271Y-23464980D01*
X-9693271Y-23464980D02*
X-9712318Y-23474504D01*
X-9712318Y-23474504D02*
X-9731366Y-23474504D01*
X-9731366Y-23474504D02*
X-9750413Y-23464980D01*
X-9750413Y-23464980D02*
X-9759937Y-23455456D01*
X-9759937Y-23455456D02*
X-9769461Y-23436408D01*
X-9769461Y-23436408D02*
X-9778985Y-23398313D01*
X-9778985Y-23398313D02*
X-9778985Y-23350694D01*
X-9778985Y-23350694D02*
X-9769461Y-23312599D01*
X-9769461Y-23312599D02*
X-9759937Y-23293551D01*
X-9759937Y-23293551D02*
X-9750413Y-23284028D01*
X-9750413Y-23284028D02*
X-9731366Y-23274504D01*
X-9578985Y-23455456D02*
X-9569461Y-23464980D01*
X-9569461Y-23464980D02*
X-9578985Y-23474504D01*
X-9578985Y-23474504D02*
X-9588509Y-23464980D01*
X-9588509Y-23464980D02*
X-9578985Y-23455456D01*
X-9578985Y-23455456D02*
X-9578985Y-23474504D01*
X-9378985Y-23474504D02*
X-9493271Y-23474504D01*
X-9436128Y-23474504D02*
X-9436128Y-23274504D01*
X-9436128Y-23274504D02*
X-9455175Y-23303075D01*
X-9455175Y-23303075D02*
X-9474223Y-23322123D01*
X-9474223Y-23322123D02*
X-9493271Y-23331647D01*
X-9255175Y-23274504D02*
X-9236128Y-23274504D01*
X-9236128Y-23274504D02*
X-9217080Y-23284028D01*
X-9217080Y-23284028D02*
X-9207556Y-23293551D01*
X-9207556Y-23293551D02*
X-9198032Y-23312599D01*
X-9198032Y-23312599D02*
X-9188509Y-23350694D01*
X-9188509Y-23350694D02*
X-9188509Y-23398313D01*
X-9188509Y-23398313D02*
X-9198032Y-23436408D01*
X-9198032Y-23436408D02*
X-9207556Y-23455456D01*
X-9207556Y-23455456D02*
X-9217080Y-23464980D01*
X-9217080Y-23464980D02*
X-9236128Y-23474504D01*
X-9236128Y-23474504D02*
X-9255175Y-23474504D01*
X-9255175Y-23474504D02*
X-9274223Y-23464980D01*
X-9274223Y-23464980D02*
X-9283747Y-23455456D01*
X-9283747Y-23455456D02*
X-9293271Y-23436408D01*
X-9293271Y-23436408D02*
X-9302794Y-23398313D01*
X-9302794Y-23398313D02*
X-9302794Y-23350694D01*
X-9302794Y-23350694D02*
X-9293271Y-23312599D01*
X-9293271Y-23312599D02*
X-9283747Y-23293551D01*
X-9283747Y-23293551D02*
X-9274223Y-23284028D01*
X-9274223Y-23284028D02*
X-9255175Y-23274504D01*
X-9017080Y-23274504D02*
X-9055175Y-23274504D01*
X-9055175Y-23274504D02*
X-9074223Y-23284028D01*
X-9074223Y-23284028D02*
X-9083747Y-23293551D01*
X-9083747Y-23293551D02*
X-9102794Y-23322123D01*
X-9102794Y-23322123D02*
X-9112318Y-23360218D01*
X-9112318Y-23360218D02*
X-9112318Y-23436408D01*
X-9112318Y-23436408D02*
X-9102794Y-23455456D01*
X-9102794Y-23455456D02*
X-9093271Y-23464980D01*
X-9093271Y-23464980D02*
X-9074223Y-23474504D01*
X-9074223Y-23474504D02*
X-9036128Y-23474504D01*
X-9036128Y-23474504D02*
X-9017080Y-23464980D01*
X-9017080Y-23464980D02*
X-9007556Y-23455456D01*
X-9007556Y-23455456D02*
X-8998032Y-23436408D01*
X-8998032Y-23436408D02*
X-8998032Y-23388789D01*
X-8998032Y-23388789D02*
X-9007556Y-23369742D01*
X-9007556Y-23369742D02*
X-9017080Y-23360218D01*
X-9017080Y-23360218D02*
X-9036128Y-23350694D01*
X-9036128Y-23350694D02*
X-9074223Y-23350694D01*
X-9074223Y-23350694D02*
X-9093271Y-23360218D01*
X-9093271Y-23360218D02*
X-9102794Y-23369742D01*
X-9102794Y-23369742D02*
X-9112318Y-23388789D01*
X-8931366Y-23274504D02*
X-8807556Y-23274504D01*
X-8807556Y-23274504D02*
X-8874223Y-23350694D01*
X-8874223Y-23350694D02*
X-8845651Y-23350694D01*
X-8845651Y-23350694D02*
X-8826604Y-23360218D01*
X-8826604Y-23360218D02*
X-8817080Y-23369742D01*
X-8817080Y-23369742D02*
X-8807556Y-23388789D01*
X-8807556Y-23388789D02*
X-8807556Y-23436408D01*
X-8807556Y-23436408D02*
X-8817080Y-23455456D01*
X-8817080Y-23455456D02*
X-8826604Y-23464980D01*
X-8826604Y-23464980D02*
X-8845651Y-23474504D01*
X-8845651Y-23474504D02*
X-8902794Y-23474504D01*
X-8902794Y-23474504D02*
X-8921842Y-23464980D01*
X-8921842Y-23464980D02*
X-8931366Y-23455456D01*
X-8731366Y-23274504D02*
X-8731366Y-23312599D01*
X-8655175Y-23274504D02*
X-8655175Y-23312599D01*
X-8359937Y-23550694D02*
X-8369461Y-23541170D01*
X-8369461Y-23541170D02*
X-8388508Y-23512599D01*
X-8388508Y-23512599D02*
X-8398032Y-23493551D01*
X-8398032Y-23493551D02*
X-8407556Y-23464980D01*
X-8407556Y-23464980D02*
X-8417080Y-23417361D01*
X-8417080Y-23417361D02*
X-8417080Y-23379266D01*
X-8417080Y-23379266D02*
X-8407556Y-23331647D01*
X-8407556Y-23331647D02*
X-8398032Y-23303075D01*
X-8398032Y-23303075D02*
X-8388508Y-23284028D01*
X-8388508Y-23284028D02*
X-8369461Y-23255456D01*
X-8369461Y-23255456D02*
X-8359937Y-23245932D01*
X-8198032Y-23341170D02*
X-8198032Y-23474504D01*
X-8245651Y-23264980D02*
X-8293270Y-23407837D01*
X-8293270Y-23407837D02*
X-8169461Y-23407837D01*
X-7940889Y-23474504D02*
X-7940889Y-23274504D01*
X-7855175Y-23474504D02*
X-7855175Y-23369742D01*
X-7855175Y-23369742D02*
X-7864699Y-23350694D01*
X-7864699Y-23350694D02*
X-7883746Y-23341170D01*
X-7883746Y-23341170D02*
X-7912318Y-23341170D01*
X-7912318Y-23341170D02*
X-7931366Y-23350694D01*
X-7931366Y-23350694D02*
X-7940889Y-23360218D01*
X-7731366Y-23474504D02*
X-7750413Y-23464980D01*
X-7750413Y-23464980D02*
X-7759937Y-23455456D01*
X-7759937Y-23455456D02*
X-7769461Y-23436408D01*
X-7769461Y-23436408D02*
X-7769461Y-23379266D01*
X-7769461Y-23379266D02*
X-7759937Y-23360218D01*
X-7759937Y-23360218D02*
X-7750413Y-23350694D01*
X-7750413Y-23350694D02*
X-7731366Y-23341170D01*
X-7731366Y-23341170D02*
X-7702794Y-23341170D01*
X-7702794Y-23341170D02*
X-7683746Y-23350694D01*
X-7683746Y-23350694D02*
X-7674223Y-23360218D01*
X-7674223Y-23360218D02*
X-7664699Y-23379266D01*
X-7664699Y-23379266D02*
X-7664699Y-23436408D01*
X-7664699Y-23436408D02*
X-7674223Y-23455456D01*
X-7674223Y-23455456D02*
X-7683746Y-23464980D01*
X-7683746Y-23464980D02*
X-7702794Y-23474504D01*
X-7702794Y-23474504D02*
X-7731366Y-23474504D01*
X-7550413Y-23474504D02*
X-7569461Y-23464980D01*
X-7569461Y-23464980D02*
X-7578985Y-23445932D01*
X-7578985Y-23445932D02*
X-7578985Y-23274504D01*
X-7398032Y-23464980D02*
X-7417080Y-23474504D01*
X-7417080Y-23474504D02*
X-7455175Y-23474504D01*
X-7455175Y-23474504D02*
X-7474223Y-23464980D01*
X-7474223Y-23464980D02*
X-7483746Y-23445932D01*
X-7483746Y-23445932D02*
X-7483746Y-23369742D01*
X-7483746Y-23369742D02*
X-7474223Y-23350694D01*
X-7474223Y-23350694D02*
X-7455175Y-23341170D01*
X-7455175Y-23341170D02*
X-7417080Y-23341170D01*
X-7417080Y-23341170D02*
X-7398032Y-23350694D01*
X-7398032Y-23350694D02*
X-7388508Y-23369742D01*
X-7388508Y-23369742D02*
X-7388508Y-23388789D01*
X-7388508Y-23388789D02*
X-7483746Y-23407837D01*
X-7312318Y-23464980D02*
X-7293270Y-23474504D01*
X-7293270Y-23474504D02*
X-7255175Y-23474504D01*
X-7255175Y-23474504D02*
X-7236127Y-23464980D01*
X-7236127Y-23464980D02*
X-7226604Y-23445932D01*
X-7226604Y-23445932D02*
X-7226604Y-23436408D01*
X-7226604Y-23436408D02*
X-7236127Y-23417361D01*
X-7236127Y-23417361D02*
X-7255175Y-23407837D01*
X-7255175Y-23407837D02*
X-7283746Y-23407837D01*
X-7283746Y-23407837D02*
X-7302794Y-23398313D01*
X-7302794Y-23398313D02*
X-7312318Y-23379266D01*
X-7312318Y-23379266D02*
X-7312318Y-23369742D01*
X-7312318Y-23369742D02*
X-7302794Y-23350694D01*
X-7302794Y-23350694D02*
X-7283746Y-23341170D01*
X-7283746Y-23341170D02*
X-7255175Y-23341170D01*
X-7255175Y-23341170D02*
X-7236127Y-23350694D01*
X-7159937Y-23550694D02*
X-7150413Y-23541170D01*
X-7150413Y-23541170D02*
X-7131365Y-23512599D01*
X-7131365Y-23512599D02*
X-7121842Y-23493551D01*
X-7121842Y-23493551D02*
X-7112318Y-23464980D01*
X-7112318Y-23464980D02*
X-7102794Y-23417361D01*
X-7102794Y-23417361D02*
X-7102794Y-23379266D01*
X-7102794Y-23379266D02*
X-7112318Y-23331647D01*
X-7112318Y-23331647D02*
X-7121842Y-23303075D01*
X-7121842Y-23303075D02*
X-7131365Y-23284028D01*
X-7131365Y-23284028D02*
X-7150413Y-23255456D01*
X-7150413Y-23255456D02*
X-7159937Y-23245932D01*
X-6798032Y-23550694D02*
X-6807556Y-23541170D01*
X-6807556Y-23541170D02*
X-6826604Y-23512599D01*
X-6826604Y-23512599D02*
X-6836127Y-23493551D01*
X-6836127Y-23493551D02*
X-6845651Y-23464980D01*
X-6845651Y-23464980D02*
X-6855175Y-23417361D01*
X-6855175Y-23417361D02*
X-6855175Y-23379266D01*
X-6855175Y-23379266D02*
X-6845651Y-23331647D01*
X-6845651Y-23331647D02*
X-6836127Y-23303075D01*
X-6836127Y-23303075D02*
X-6826604Y-23284028D01*
X-6826604Y-23284028D02*
X-6807556Y-23255456D01*
X-6807556Y-23255456D02*
X-6798032Y-23245932D01*
X-6721842Y-23341170D02*
X-6721842Y-23474504D01*
X-6721842Y-23360218D02*
X-6712318Y-23350694D01*
X-6712318Y-23350694D02*
X-6693270Y-23341170D01*
X-6693270Y-23341170D02*
X-6664699Y-23341170D01*
X-6664699Y-23341170D02*
X-6645651Y-23350694D01*
X-6645651Y-23350694D02*
X-6636127Y-23369742D01*
X-6636127Y-23369742D02*
X-6636127Y-23474504D01*
X-6512318Y-23474504D02*
X-6531365Y-23464980D01*
X-6531365Y-23464980D02*
X-6540889Y-23455456D01*
X-6540889Y-23455456D02*
X-6550413Y-23436408D01*
X-6550413Y-23436408D02*
X-6550413Y-23379266D01*
X-6550413Y-23379266D02*
X-6540889Y-23360218D01*
X-6540889Y-23360218D02*
X-6531365Y-23350694D01*
X-6531365Y-23350694D02*
X-6512318Y-23341170D01*
X-6512318Y-23341170D02*
X-6483746Y-23341170D01*
X-6483746Y-23341170D02*
X-6464699Y-23350694D01*
X-6464699Y-23350694D02*
X-6455175Y-23360218D01*
X-6455175Y-23360218D02*
X-6445651Y-23379266D01*
X-6445651Y-23379266D02*
X-6445651Y-23436408D01*
X-6445651Y-23436408D02*
X-6455175Y-23455456D01*
X-6455175Y-23455456D02*
X-6464699Y-23464980D01*
X-6464699Y-23464980D02*
X-6483746Y-23474504D01*
X-6483746Y-23474504D02*
X-6512318Y-23474504D01*
X-6388508Y-23341170D02*
X-6312318Y-23341170D01*
X-6359937Y-23274504D02*
X-6359937Y-23445932D01*
X-6359937Y-23445932D02*
X-6350413Y-23464980D01*
X-6350413Y-23464980D02*
X-6331365Y-23474504D01*
X-6331365Y-23474504D02*
X-6312318Y-23474504D01*
X-6093270Y-23341170D02*
X-6093270Y-23541170D01*
X-6093270Y-23350694D02*
X-6074223Y-23341170D01*
X-6074223Y-23341170D02*
X-6036127Y-23341170D01*
X-6036127Y-23341170D02*
X-6017080Y-23350694D01*
X-6017080Y-23350694D02*
X-6007556Y-23360218D01*
X-6007556Y-23360218D02*
X-5998032Y-23379266D01*
X-5998032Y-23379266D02*
X-5998032Y-23436408D01*
X-5998032Y-23436408D02*
X-6007556Y-23455456D01*
X-6007556Y-23455456D02*
X-6017080Y-23464980D01*
X-6017080Y-23464980D02*
X-6036127Y-23474504D01*
X-6036127Y-23474504D02*
X-6074223Y-23474504D01*
X-6074223Y-23474504D02*
X-6093270Y-23464980D01*
X-5883746Y-23474504D02*
X-5902794Y-23464980D01*
X-5902794Y-23464980D02*
X-5912318Y-23445932D01*
X-5912318Y-23445932D02*
X-5912318Y-23274504D01*
X-5721842Y-23474504D02*
X-5721842Y-23369742D01*
X-5721842Y-23369742D02*
X-5731365Y-23350694D01*
X-5731365Y-23350694D02*
X-5750413Y-23341170D01*
X-5750413Y-23341170D02*
X-5788508Y-23341170D01*
X-5788508Y-23341170D02*
X-5807556Y-23350694D01*
X-5721842Y-23464980D02*
X-5740889Y-23474504D01*
X-5740889Y-23474504D02*
X-5788508Y-23474504D01*
X-5788508Y-23474504D02*
X-5807556Y-23464980D01*
X-5807556Y-23464980D02*
X-5817080Y-23445932D01*
X-5817080Y-23445932D02*
X-5817080Y-23426885D01*
X-5817080Y-23426885D02*
X-5807556Y-23407837D01*
X-5807556Y-23407837D02*
X-5788508Y-23398313D01*
X-5788508Y-23398313D02*
X-5740889Y-23398313D01*
X-5740889Y-23398313D02*
X-5721842Y-23388789D01*
X-5655175Y-23341170D02*
X-5578985Y-23341170D01*
X-5626603Y-23274504D02*
X-5626603Y-23445932D01*
X-5626603Y-23445932D02*
X-5617080Y-23464980D01*
X-5617080Y-23464980D02*
X-5598032Y-23474504D01*
X-5598032Y-23474504D02*
X-5578985Y-23474504D01*
X-5436127Y-23464980D02*
X-5455175Y-23474504D01*
X-5455175Y-23474504D02*
X-5493270Y-23474504D01*
X-5493270Y-23474504D02*
X-5512318Y-23464980D01*
X-5512318Y-23464980D02*
X-5521842Y-23445932D01*
X-5521842Y-23445932D02*
X-5521842Y-23369742D01*
X-5521842Y-23369742D02*
X-5512318Y-23350694D01*
X-5512318Y-23350694D02*
X-5493270Y-23341170D01*
X-5493270Y-23341170D02*
X-5455175Y-23341170D01*
X-5455175Y-23341170D02*
X-5436127Y-23350694D01*
X-5436127Y-23350694D02*
X-5426604Y-23369742D01*
X-5426604Y-23369742D02*
X-5426604Y-23388789D01*
X-5426604Y-23388789D02*
X-5521842Y-23407837D01*
X-5255175Y-23474504D02*
X-5255175Y-23274504D01*
X-5255175Y-23464980D02*
X-5274223Y-23474504D01*
X-5274223Y-23474504D02*
X-5312318Y-23474504D01*
X-5312318Y-23474504D02*
X-5331365Y-23464980D01*
X-5331365Y-23464980D02*
X-5340889Y-23455456D01*
X-5340889Y-23455456D02*
X-5350413Y-23436408D01*
X-5350413Y-23436408D02*
X-5350413Y-23379266D01*
X-5350413Y-23379266D02*
X-5340889Y-23360218D01*
X-5340889Y-23360218D02*
X-5331365Y-23350694D01*
X-5331365Y-23350694D02*
X-5312318Y-23341170D01*
X-5312318Y-23341170D02*
X-5274223Y-23341170D01*
X-5274223Y-23341170D02*
X-5255175Y-23350694D01*
X-5178984Y-23550694D02*
X-5169461Y-23541170D01*
X-5169461Y-23541170D02*
X-5150413Y-23512599D01*
X-5150413Y-23512599D02*
X-5140889Y-23493551D01*
X-5140889Y-23493551D02*
X-5131365Y-23464980D01*
X-5131365Y-23464980D02*
X-5121842Y-23417361D01*
X-5121842Y-23417361D02*
X-5121842Y-23379266D01*
X-5121842Y-23379266D02*
X-5131365Y-23331647D01*
X-5131365Y-23331647D02*
X-5140889Y-23303075D01*
X-5140889Y-23303075D02*
X-5150413Y-23284028D01*
X-5150413Y-23284028D02*
X-5169461Y-23255456D01*
X-5169461Y-23255456D02*
X-5178984Y-23245932D01*
X-12035000Y-23803020D02*
X-11935000Y-23703020D01*
X-12035000Y-23603020D01*
X-12135000Y-23703020D01*
X-12035000Y-23803020D01*
X-11693271Y-23594504D02*
X-11569461Y-23594504D01*
X-11569461Y-23594504D02*
X-11636128Y-23670694D01*
X-11636128Y-23670694D02*
X-11607556Y-23670694D01*
X-11607556Y-23670694D02*
X-11588509Y-23680218D01*
X-11588509Y-23680218D02*
X-11578985Y-23689742D01*
X-11578985Y-23689742D02*
X-11569461Y-23708789D01*
X-11569461Y-23708789D02*
X-11569461Y-23756408D01*
X-11569461Y-23756408D02*
X-11578985Y-23775456D01*
X-11578985Y-23775456D02*
X-11588509Y-23784980D01*
X-11588509Y-23784980D02*
X-11607556Y-23794504D01*
X-11607556Y-23794504D02*
X-11664699Y-23794504D01*
X-11664699Y-23794504D02*
X-11683747Y-23784980D01*
X-11683747Y-23784980D02*
X-11693271Y-23775456D01*
X-11483747Y-23775456D02*
X-11474223Y-23784980D01*
X-11474223Y-23784980D02*
X-11483747Y-23794504D01*
X-11483747Y-23794504D02*
X-11493271Y-23784980D01*
X-11493271Y-23784980D02*
X-11483747Y-23775456D01*
X-11483747Y-23775456D02*
X-11483747Y-23794504D01*
X-11398033Y-23613551D02*
X-11388509Y-23604028D01*
X-11388509Y-23604028D02*
X-11369461Y-23594504D01*
X-11369461Y-23594504D02*
X-11321842Y-23594504D01*
X-11321842Y-23594504D02*
X-11302794Y-23604028D01*
X-11302794Y-23604028D02*
X-11293271Y-23613551D01*
X-11293271Y-23613551D02*
X-11283747Y-23632599D01*
X-11283747Y-23632599D02*
X-11283747Y-23651647D01*
X-11283747Y-23651647D02*
X-11293271Y-23680218D01*
X-11293271Y-23680218D02*
X-11407556Y-23794504D01*
X-11407556Y-23794504D02*
X-11283747Y-23794504D01*
X-11102795Y-23594504D02*
X-11198033Y-23594504D01*
X-11198033Y-23594504D02*
X-11207556Y-23689742D01*
X-11207556Y-23689742D02*
X-11198033Y-23680218D01*
X-11198033Y-23680218D02*
X-11178985Y-23670694D01*
X-11178985Y-23670694D02*
X-11131366Y-23670694D01*
X-11131366Y-23670694D02*
X-11112318Y-23680218D01*
X-11112318Y-23680218D02*
X-11102795Y-23689742D01*
X-11102795Y-23689742D02*
X-11093271Y-23708789D01*
X-11093271Y-23708789D02*
X-11093271Y-23756408D01*
X-11093271Y-23756408D02*
X-11102795Y-23775456D01*
X-11102795Y-23775456D02*
X-11112318Y-23784980D01*
X-11112318Y-23784980D02*
X-11131366Y-23794504D01*
X-11131366Y-23794504D02*
X-11178985Y-23794504D01*
X-11178985Y-23794504D02*
X-11198033Y-23784980D01*
X-11198033Y-23784980D02*
X-11207556Y-23775456D01*
X-10969461Y-23594504D02*
X-10950414Y-23594504D01*
X-10950414Y-23594504D02*
X-10931366Y-23604028D01*
X-10931366Y-23604028D02*
X-10921842Y-23613551D01*
X-10921842Y-23613551D02*
X-10912318Y-23632599D01*
X-10912318Y-23632599D02*
X-10902795Y-23670694D01*
X-10902795Y-23670694D02*
X-10902795Y-23718313D01*
X-10902795Y-23718313D02*
X-10912318Y-23756408D01*
X-10912318Y-23756408D02*
X-10921842Y-23775456D01*
X-10921842Y-23775456D02*
X-10931366Y-23784980D01*
X-10931366Y-23784980D02*
X-10950414Y-23794504D01*
X-10950414Y-23794504D02*
X-10969461Y-23794504D01*
X-10969461Y-23794504D02*
X-10988509Y-23784980D01*
X-10988509Y-23784980D02*
X-10998033Y-23775456D01*
X-10998033Y-23775456D02*
X-11007556Y-23756408D01*
X-11007556Y-23756408D02*
X-11017080Y-23718313D01*
X-11017080Y-23718313D02*
X-11017080Y-23670694D01*
X-11017080Y-23670694D02*
X-11007556Y-23632599D01*
X-11007556Y-23632599D02*
X-10998033Y-23613551D01*
X-10998033Y-23613551D02*
X-10988509Y-23604028D01*
X-10988509Y-23604028D02*
X-10969461Y-23594504D01*
X-10817080Y-23794504D02*
X-10817080Y-23661170D01*
X-10817080Y-23680218D02*
X-10807556Y-23670694D01*
X-10807556Y-23670694D02*
X-10788509Y-23661170D01*
X-10788509Y-23661170D02*
X-10759937Y-23661170D01*
X-10759937Y-23661170D02*
X-10740890Y-23670694D01*
X-10740890Y-23670694D02*
X-10731366Y-23689742D01*
X-10731366Y-23689742D02*
X-10731366Y-23794504D01*
X-10731366Y-23689742D02*
X-10721842Y-23670694D01*
X-10721842Y-23670694D02*
X-10702795Y-23661170D01*
X-10702795Y-23661170D02*
X-10674223Y-23661170D01*
X-10674223Y-23661170D02*
X-10655175Y-23670694D01*
X-10655175Y-23670694D02*
X-10645652Y-23689742D01*
X-10645652Y-23689742D02*
X-10645652Y-23794504D01*
X-10550414Y-23794504D02*
X-10550414Y-23661170D01*
X-10550414Y-23680218D02*
X-10540890Y-23670694D01*
X-10540890Y-23670694D02*
X-10521842Y-23661170D01*
X-10521842Y-23661170D02*
X-10493271Y-23661170D01*
X-10493271Y-23661170D02*
X-10474223Y-23670694D01*
X-10474223Y-23670694D02*
X-10464699Y-23689742D01*
X-10464699Y-23689742D02*
X-10464699Y-23794504D01*
X-10464699Y-23689742D02*
X-10455175Y-23670694D01*
X-10455175Y-23670694D02*
X-10436128Y-23661170D01*
X-10436128Y-23661170D02*
X-10407556Y-23661170D01*
X-10407556Y-23661170D02*
X-10388509Y-23670694D01*
X-10388509Y-23670694D02*
X-10378985Y-23689742D01*
X-10378985Y-23689742D02*
X-10378985Y-23794504D01*
X-9988509Y-23584980D02*
X-10159937Y-23842123D01*
X-9731366Y-23594504D02*
X-9712318Y-23594504D01*
X-9712318Y-23594504D02*
X-9693271Y-23604028D01*
X-9693271Y-23604028D02*
X-9683747Y-23613551D01*
X-9683747Y-23613551D02*
X-9674223Y-23632599D01*
X-9674223Y-23632599D02*
X-9664699Y-23670694D01*
X-9664699Y-23670694D02*
X-9664699Y-23718313D01*
X-9664699Y-23718313D02*
X-9674223Y-23756408D01*
X-9674223Y-23756408D02*
X-9683747Y-23775456D01*
X-9683747Y-23775456D02*
X-9693271Y-23784980D01*
X-9693271Y-23784980D02*
X-9712318Y-23794504D01*
X-9712318Y-23794504D02*
X-9731366Y-23794504D01*
X-9731366Y-23794504D02*
X-9750413Y-23784980D01*
X-9750413Y-23784980D02*
X-9759937Y-23775456D01*
X-9759937Y-23775456D02*
X-9769461Y-23756408D01*
X-9769461Y-23756408D02*
X-9778985Y-23718313D01*
X-9778985Y-23718313D02*
X-9778985Y-23670694D01*
X-9778985Y-23670694D02*
X-9769461Y-23632599D01*
X-9769461Y-23632599D02*
X-9759937Y-23613551D01*
X-9759937Y-23613551D02*
X-9750413Y-23604028D01*
X-9750413Y-23604028D02*
X-9731366Y-23594504D01*
X-9578985Y-23775456D02*
X-9569461Y-23784980D01*
X-9569461Y-23784980D02*
X-9578985Y-23794504D01*
X-9578985Y-23794504D02*
X-9588509Y-23784980D01*
X-9588509Y-23784980D02*
X-9578985Y-23775456D01*
X-9578985Y-23775456D02*
X-9578985Y-23794504D01*
X-9378985Y-23794504D02*
X-9493271Y-23794504D01*
X-9436128Y-23794504D02*
X-9436128Y-23594504D01*
X-9436128Y-23594504D02*
X-9455175Y-23623075D01*
X-9455175Y-23623075D02*
X-9474223Y-23642123D01*
X-9474223Y-23642123D02*
X-9493271Y-23651647D01*
X-9302794Y-23613551D02*
X-9293271Y-23604028D01*
X-9293271Y-23604028D02*
X-9274223Y-23594504D01*
X-9274223Y-23594504D02*
X-9226604Y-23594504D01*
X-9226604Y-23594504D02*
X-9207556Y-23604028D01*
X-9207556Y-23604028D02*
X-9198032Y-23613551D01*
X-9198032Y-23613551D02*
X-9188509Y-23632599D01*
X-9188509Y-23632599D02*
X-9188509Y-23651647D01*
X-9188509Y-23651647D02*
X-9198032Y-23680218D01*
X-9198032Y-23680218D02*
X-9312318Y-23794504D01*
X-9312318Y-23794504D02*
X-9188509Y-23794504D01*
X-9074223Y-23680218D02*
X-9093271Y-23670694D01*
X-9093271Y-23670694D02*
X-9102794Y-23661170D01*
X-9102794Y-23661170D02*
X-9112318Y-23642123D01*
X-9112318Y-23642123D02*
X-9112318Y-23632599D01*
X-9112318Y-23632599D02*
X-9102794Y-23613551D01*
X-9102794Y-23613551D02*
X-9093271Y-23604028D01*
X-9093271Y-23604028D02*
X-9074223Y-23594504D01*
X-9074223Y-23594504D02*
X-9036128Y-23594504D01*
X-9036128Y-23594504D02*
X-9017080Y-23604028D01*
X-9017080Y-23604028D02*
X-9007556Y-23613551D01*
X-9007556Y-23613551D02*
X-8998032Y-23632599D01*
X-8998032Y-23632599D02*
X-8998032Y-23642123D01*
X-8998032Y-23642123D02*
X-9007556Y-23661170D01*
X-9007556Y-23661170D02*
X-9017080Y-23670694D01*
X-9017080Y-23670694D02*
X-9036128Y-23680218D01*
X-9036128Y-23680218D02*
X-9074223Y-23680218D01*
X-9074223Y-23680218D02*
X-9093271Y-23689742D01*
X-9093271Y-23689742D02*
X-9102794Y-23699266D01*
X-9102794Y-23699266D02*
X-9112318Y-23718313D01*
X-9112318Y-23718313D02*
X-9112318Y-23756408D01*
X-9112318Y-23756408D02*
X-9102794Y-23775456D01*
X-9102794Y-23775456D02*
X-9093271Y-23784980D01*
X-9093271Y-23784980D02*
X-9074223Y-23794504D01*
X-9074223Y-23794504D02*
X-9036128Y-23794504D01*
X-9036128Y-23794504D02*
X-9017080Y-23784980D01*
X-9017080Y-23784980D02*
X-9007556Y-23775456D01*
X-9007556Y-23775456D02*
X-8998032Y-23756408D01*
X-8998032Y-23756408D02*
X-8998032Y-23718313D01*
X-8998032Y-23718313D02*
X-9007556Y-23699266D01*
X-9007556Y-23699266D02*
X-9017080Y-23689742D01*
X-9017080Y-23689742D02*
X-9036128Y-23680218D01*
X-8874223Y-23594504D02*
X-8855175Y-23594504D01*
X-8855175Y-23594504D02*
X-8836128Y-23604028D01*
X-8836128Y-23604028D02*
X-8826604Y-23613551D01*
X-8826604Y-23613551D02*
X-8817080Y-23632599D01*
X-8817080Y-23632599D02*
X-8807556Y-23670694D01*
X-8807556Y-23670694D02*
X-8807556Y-23718313D01*
X-8807556Y-23718313D02*
X-8817080Y-23756408D01*
X-8817080Y-23756408D02*
X-8826604Y-23775456D01*
X-8826604Y-23775456D02*
X-8836128Y-23784980D01*
X-8836128Y-23784980D02*
X-8855175Y-23794504D01*
X-8855175Y-23794504D02*
X-8874223Y-23794504D01*
X-8874223Y-23794504D02*
X-8893271Y-23784980D01*
X-8893271Y-23784980D02*
X-8902794Y-23775456D01*
X-8902794Y-23775456D02*
X-8912318Y-23756408D01*
X-8912318Y-23756408D02*
X-8921842Y-23718313D01*
X-8921842Y-23718313D02*
X-8921842Y-23670694D01*
X-8921842Y-23670694D02*
X-8912318Y-23632599D01*
X-8912318Y-23632599D02*
X-8902794Y-23613551D01*
X-8902794Y-23613551D02*
X-8893271Y-23604028D01*
X-8893271Y-23604028D02*
X-8874223Y-23594504D01*
X-8731366Y-23594504D02*
X-8731366Y-23632599D01*
X-8655175Y-23594504D02*
X-8655175Y-23632599D01*
X-8359937Y-23870694D02*
X-8369461Y-23861170D01*
X-8369461Y-23861170D02*
X-8388508Y-23832599D01*
X-8388508Y-23832599D02*
X-8398032Y-23813551D01*
X-8398032Y-23813551D02*
X-8407556Y-23784980D01*
X-8407556Y-23784980D02*
X-8417080Y-23737361D01*
X-8417080Y-23737361D02*
X-8417080Y-23699266D01*
X-8417080Y-23699266D02*
X-8407556Y-23651647D01*
X-8407556Y-23651647D02*
X-8398032Y-23623075D01*
X-8398032Y-23623075D02*
X-8388508Y-23604028D01*
X-8388508Y-23604028D02*
X-8369461Y-23575456D01*
X-8369461Y-23575456D02*
X-8359937Y-23565932D01*
X-8198032Y-23661170D02*
X-8198032Y-23794504D01*
X-8245651Y-23584980D02*
X-8293270Y-23727837D01*
X-8293270Y-23727837D02*
X-8169461Y-23727837D01*
X-7940889Y-23794504D02*
X-7940889Y-23594504D01*
X-7855175Y-23794504D02*
X-7855175Y-23689742D01*
X-7855175Y-23689742D02*
X-7864699Y-23670694D01*
X-7864699Y-23670694D02*
X-7883746Y-23661170D01*
X-7883746Y-23661170D02*
X-7912318Y-23661170D01*
X-7912318Y-23661170D02*
X-7931366Y-23670694D01*
X-7931366Y-23670694D02*
X-7940889Y-23680218D01*
X-7731366Y-23794504D02*
X-7750413Y-23784980D01*
X-7750413Y-23784980D02*
X-7759937Y-23775456D01*
X-7759937Y-23775456D02*
X-7769461Y-23756408D01*
X-7769461Y-23756408D02*
X-7769461Y-23699266D01*
X-7769461Y-23699266D02*
X-7759937Y-23680218D01*
X-7759937Y-23680218D02*
X-7750413Y-23670694D01*
X-7750413Y-23670694D02*
X-7731366Y-23661170D01*
X-7731366Y-23661170D02*
X-7702794Y-23661170D01*
X-7702794Y-23661170D02*
X-7683746Y-23670694D01*
X-7683746Y-23670694D02*
X-7674223Y-23680218D01*
X-7674223Y-23680218D02*
X-7664699Y-23699266D01*
X-7664699Y-23699266D02*
X-7664699Y-23756408D01*
X-7664699Y-23756408D02*
X-7674223Y-23775456D01*
X-7674223Y-23775456D02*
X-7683746Y-23784980D01*
X-7683746Y-23784980D02*
X-7702794Y-23794504D01*
X-7702794Y-23794504D02*
X-7731366Y-23794504D01*
X-7550413Y-23794504D02*
X-7569461Y-23784980D01*
X-7569461Y-23784980D02*
X-7578985Y-23765932D01*
X-7578985Y-23765932D02*
X-7578985Y-23594504D01*
X-7398032Y-23784980D02*
X-7417080Y-23794504D01*
X-7417080Y-23794504D02*
X-7455175Y-23794504D01*
X-7455175Y-23794504D02*
X-7474223Y-23784980D01*
X-7474223Y-23784980D02*
X-7483746Y-23765932D01*
X-7483746Y-23765932D02*
X-7483746Y-23689742D01*
X-7483746Y-23689742D02*
X-7474223Y-23670694D01*
X-7474223Y-23670694D02*
X-7455175Y-23661170D01*
X-7455175Y-23661170D02*
X-7417080Y-23661170D01*
X-7417080Y-23661170D02*
X-7398032Y-23670694D01*
X-7398032Y-23670694D02*
X-7388508Y-23689742D01*
X-7388508Y-23689742D02*
X-7388508Y-23708789D01*
X-7388508Y-23708789D02*
X-7483746Y-23727837D01*
X-7312318Y-23784980D02*
X-7293270Y-23794504D01*
X-7293270Y-23794504D02*
X-7255175Y-23794504D01*
X-7255175Y-23794504D02*
X-7236127Y-23784980D01*
X-7236127Y-23784980D02*
X-7226604Y-23765932D01*
X-7226604Y-23765932D02*
X-7226604Y-23756408D01*
X-7226604Y-23756408D02*
X-7236127Y-23737361D01*
X-7236127Y-23737361D02*
X-7255175Y-23727837D01*
X-7255175Y-23727837D02*
X-7283746Y-23727837D01*
X-7283746Y-23727837D02*
X-7302794Y-23718313D01*
X-7302794Y-23718313D02*
X-7312318Y-23699266D01*
X-7312318Y-23699266D02*
X-7312318Y-23689742D01*
X-7312318Y-23689742D02*
X-7302794Y-23670694D01*
X-7302794Y-23670694D02*
X-7283746Y-23661170D01*
X-7283746Y-23661170D02*
X-7255175Y-23661170D01*
X-7255175Y-23661170D02*
X-7236127Y-23670694D01*
X-7159937Y-23870694D02*
X-7150413Y-23861170D01*
X-7150413Y-23861170D02*
X-7131365Y-23832599D01*
X-7131365Y-23832599D02*
X-7121842Y-23813551D01*
X-7121842Y-23813551D02*
X-7112318Y-23784980D01*
X-7112318Y-23784980D02*
X-7102794Y-23737361D01*
X-7102794Y-23737361D02*
X-7102794Y-23699266D01*
X-7102794Y-23699266D02*
X-7112318Y-23651647D01*
X-7112318Y-23651647D02*
X-7121842Y-23623075D01*
X-7121842Y-23623075D02*
X-7131365Y-23604028D01*
X-7131365Y-23604028D02*
X-7150413Y-23575456D01*
X-7150413Y-23575456D02*
X-7159937Y-23565932D01*
X-6798032Y-23870694D02*
X-6807556Y-23861170D01*
X-6807556Y-23861170D02*
X-6826604Y-23832599D01*
X-6826604Y-23832599D02*
X-6836127Y-23813551D01*
X-6836127Y-23813551D02*
X-6845651Y-23784980D01*
X-6845651Y-23784980D02*
X-6855175Y-23737361D01*
X-6855175Y-23737361D02*
X-6855175Y-23699266D01*
X-6855175Y-23699266D02*
X-6845651Y-23651647D01*
X-6845651Y-23651647D02*
X-6836127Y-23623075D01*
X-6836127Y-23623075D02*
X-6826604Y-23604028D01*
X-6826604Y-23604028D02*
X-6807556Y-23575456D01*
X-6807556Y-23575456D02*
X-6798032Y-23565932D01*
X-6721842Y-23661170D02*
X-6721842Y-23794504D01*
X-6721842Y-23680218D02*
X-6712318Y-23670694D01*
X-6712318Y-23670694D02*
X-6693270Y-23661170D01*
X-6693270Y-23661170D02*
X-6664699Y-23661170D01*
X-6664699Y-23661170D02*
X-6645651Y-23670694D01*
X-6645651Y-23670694D02*
X-6636127Y-23689742D01*
X-6636127Y-23689742D02*
X-6636127Y-23794504D01*
X-6512318Y-23794504D02*
X-6531365Y-23784980D01*
X-6531365Y-23784980D02*
X-6540889Y-23775456D01*
X-6540889Y-23775456D02*
X-6550413Y-23756408D01*
X-6550413Y-23756408D02*
X-6550413Y-23699266D01*
X-6550413Y-23699266D02*
X-6540889Y-23680218D01*
X-6540889Y-23680218D02*
X-6531365Y-23670694D01*
X-6531365Y-23670694D02*
X-6512318Y-23661170D01*
X-6512318Y-23661170D02*
X-6483746Y-23661170D01*
X-6483746Y-23661170D02*
X-6464699Y-23670694D01*
X-6464699Y-23670694D02*
X-6455175Y-23680218D01*
X-6455175Y-23680218D02*
X-6445651Y-23699266D01*
X-6445651Y-23699266D02*
X-6445651Y-23756408D01*
X-6445651Y-23756408D02*
X-6455175Y-23775456D01*
X-6455175Y-23775456D02*
X-6464699Y-23784980D01*
X-6464699Y-23784980D02*
X-6483746Y-23794504D01*
X-6483746Y-23794504D02*
X-6512318Y-23794504D01*
X-6388508Y-23661170D02*
X-6312318Y-23661170D01*
X-6359937Y-23594504D02*
X-6359937Y-23765932D01*
X-6359937Y-23765932D02*
X-6350413Y-23784980D01*
X-6350413Y-23784980D02*
X-6331365Y-23794504D01*
X-6331365Y-23794504D02*
X-6312318Y-23794504D01*
X-6093270Y-23661170D02*
X-6093270Y-23861170D01*
X-6093270Y-23670694D02*
X-6074223Y-23661170D01*
X-6074223Y-23661170D02*
X-6036127Y-23661170D01*
X-6036127Y-23661170D02*
X-6017080Y-23670694D01*
X-6017080Y-23670694D02*
X-6007556Y-23680218D01*
X-6007556Y-23680218D02*
X-5998032Y-23699266D01*
X-5998032Y-23699266D02*
X-5998032Y-23756408D01*
X-5998032Y-23756408D02*
X-6007556Y-23775456D01*
X-6007556Y-23775456D02*
X-6017080Y-23784980D01*
X-6017080Y-23784980D02*
X-6036127Y-23794504D01*
X-6036127Y-23794504D02*
X-6074223Y-23794504D01*
X-6074223Y-23794504D02*
X-6093270Y-23784980D01*
X-5883746Y-23794504D02*
X-5902794Y-23784980D01*
X-5902794Y-23784980D02*
X-5912318Y-23765932D01*
X-5912318Y-23765932D02*
X-5912318Y-23594504D01*
X-5721842Y-23794504D02*
X-5721842Y-23689742D01*
X-5721842Y-23689742D02*
X-5731365Y-23670694D01*
X-5731365Y-23670694D02*
X-5750413Y-23661170D01*
X-5750413Y-23661170D02*
X-5788508Y-23661170D01*
X-5788508Y-23661170D02*
X-5807556Y-23670694D01*
X-5721842Y-23784980D02*
X-5740889Y-23794504D01*
X-5740889Y-23794504D02*
X-5788508Y-23794504D01*
X-5788508Y-23794504D02*
X-5807556Y-23784980D01*
X-5807556Y-23784980D02*
X-5817080Y-23765932D01*
X-5817080Y-23765932D02*
X-5817080Y-23746885D01*
X-5817080Y-23746885D02*
X-5807556Y-23727837D01*
X-5807556Y-23727837D02*
X-5788508Y-23718313D01*
X-5788508Y-23718313D02*
X-5740889Y-23718313D01*
X-5740889Y-23718313D02*
X-5721842Y-23708789D01*
X-5655175Y-23661170D02*
X-5578985Y-23661170D01*
X-5626603Y-23594504D02*
X-5626603Y-23765932D01*
X-5626603Y-23765932D02*
X-5617080Y-23784980D01*
X-5617080Y-23784980D02*
X-5598032Y-23794504D01*
X-5598032Y-23794504D02*
X-5578985Y-23794504D01*
X-5436127Y-23784980D02*
X-5455175Y-23794504D01*
X-5455175Y-23794504D02*
X-5493270Y-23794504D01*
X-5493270Y-23794504D02*
X-5512318Y-23784980D01*
X-5512318Y-23784980D02*
X-5521842Y-23765932D01*
X-5521842Y-23765932D02*
X-5521842Y-23689742D01*
X-5521842Y-23689742D02*
X-5512318Y-23670694D01*
X-5512318Y-23670694D02*
X-5493270Y-23661170D01*
X-5493270Y-23661170D02*
X-5455175Y-23661170D01*
X-5455175Y-23661170D02*
X-5436127Y-23670694D01*
X-5436127Y-23670694D02*
X-5426604Y-23689742D01*
X-5426604Y-23689742D02*
X-5426604Y-23708789D01*
X-5426604Y-23708789D02*
X-5521842Y-23727837D01*
X-5255175Y-23794504D02*
X-5255175Y-23594504D01*
X-5255175Y-23784980D02*
X-5274223Y-23794504D01*
X-5274223Y-23794504D02*
X-5312318Y-23794504D01*
X-5312318Y-23794504D02*
X-5331365Y-23784980D01*
X-5331365Y-23784980D02*
X-5340889Y-23775456D01*
X-5340889Y-23775456D02*
X-5350413Y-23756408D01*
X-5350413Y-23756408D02*
X-5350413Y-23699266D01*
X-5350413Y-23699266D02*
X-5340889Y-23680218D01*
X-5340889Y-23680218D02*
X-5331365Y-23670694D01*
X-5331365Y-23670694D02*
X-5312318Y-23661170D01*
X-5312318Y-23661170D02*
X-5274223Y-23661170D01*
X-5274223Y-23661170D02*
X-5255175Y-23670694D01*
X-5178984Y-23870694D02*
X-5169461Y-23861170D01*
X-5169461Y-23861170D02*
X-5150413Y-23832599D01*
X-5150413Y-23832599D02*
X-5140889Y-23813551D01*
X-5140889Y-23813551D02*
X-5131365Y-23784980D01*
X-5131365Y-23784980D02*
X-5121842Y-23737361D01*
X-5121842Y-23737361D02*
X-5121842Y-23699266D01*
X-5121842Y-23699266D02*
X-5131365Y-23651647D01*
X-5131365Y-23651647D02*
X-5140889Y-23623075D01*
X-5140889Y-23623075D02*
X-5150413Y-23604028D01*
X-5150413Y-23604028D02*
X-5169461Y-23575456D01*
X-5169461Y-23575456D02*
X-5178984Y-23565932D01*
M02*
